<mxfile host="app.diagrams.net" agent="Mozilla/5.0 (Windows NT 10.0; Win64; x64) AppleWebKit/537.36 (KHTML, like Gecko) Chrome/139.0.0.0 Safari/537.36" version="28.2.5">
  <diagram id="tB35sAY1T_dLTj0sPHV3" name="Trang-1">
    <mxGraphModel grid="0" page="0" gridSize="10" guides="1" tooltips="1" connect="1" arrows="1" fold="1" pageScale="1" pageWidth="827" pageHeight="1169" math="0" shadow="0">
      <root>
        <mxCell id="0" />
        <mxCell id="1" parent="0" />
        <object placeholders="1" c4Name="SPA" c4Type="Container" c4Technology="ReactJS" c4Description="BUl for the appacation" label="&lt;font style=&quot;font-size: 16px&quot;&gt;&lt;b&gt;%c4Name%&lt;/b&gt;&lt;/font&gt;&lt;div&gt;[%c4Type%: %c4Technology%]&lt;/div&gt;&lt;br&gt;&lt;div&gt;&lt;font style=&quot;font-size: 11px&quot;&gt;&lt;font color=&quot;#E6E6E6&quot;&gt;%c4Description%&lt;/font&gt;&lt;/div&gt;" id="hd3ZJvUOIexpWE_1iHzg-3">
          <mxCell style="rounded=1;whiteSpace=wrap;html=1;fontSize=11;labelBackgroundColor=none;fillColor=light-dark(#23A2D9,#336394);fontColor=#ffffff;align=center;arcSize=10;strokeColor=#0E7DAD;metaEdit=1;resizable=0;points=[[0.25,0,0],[0.5,0,0],[0.75,0,0],[1,0.25,0],[1,0.5,0],[1,0.75,0],[0.75,1,0],[0.5,1,0],[0.25,1,0],[0,0.75,0],[0,0.5,0],[0,0.25,0]];" vertex="1" parent="1">
            <mxGeometry x="180" y="-28" width="240" height="120" as="geometry" />
          </mxCell>
        </object>
        <object placeholders="1" c4Name="API" c4Type="Container" c4Technology="[.Net Core API]" c4Description="" label="&lt;font style=&quot;font-size: 16px&quot;&gt;&lt;b&gt;%c4Name%&lt;/b&gt;&lt;/font&gt;&lt;div&gt;[%c4Type%: %c4Technology%]&lt;/div&gt;&lt;br&gt;&lt;div&gt;&lt;font style=&quot;font-size: 11px&quot;&gt;&lt;font color=&quot;#E6E6E6&quot;&gt;%c4Description%&lt;/font&gt;&lt;/div&gt;" id="hd3ZJvUOIexpWE_1iHzg-5">
          <mxCell style="rounded=1;whiteSpace=wrap;html=1;fontSize=11;labelBackgroundColor=none;fillColor=light-dark(#23A2D9,#438DD5);fontColor=#ffffff;align=center;arcSize=10;strokeColor=#0E7DAD;metaEdit=1;resizable=0;points=[[0.25,0,0],[0.5,0,0],[0.75,0,0],[1,0.25,0],[1,0.5,0],[1,0.75,0],[0.75,1,0],[0.5,1,0],[0.25,1,0],[0,0.75,0],[0,0.5,0],[0,0.25,0]];" vertex="1" parent="1">
            <mxGeometry x="180" y="200" width="240" height="120" as="geometry" />
          </mxCell>
        </object>
        <object placeholders="1" c4Name="Registrations" c4Type="Container" c4Technology=".Net Libraies" c4Description="" label="&lt;font style=&quot;font-size: 16px&quot;&gt;&lt;b&gt;%c4Name%&lt;/b&gt;&lt;/font&gt;&lt;div&gt;[%c4Type%: %c4Technology%]&lt;/div&gt;&lt;br&gt;&lt;div&gt;&lt;font style=&quot;font-size: 11px&quot;&gt;&lt;font color=&quot;#E6E6E6&quot;&gt;%c4Description%&lt;/font&gt;&lt;/div&gt;" id="hd3ZJvUOIexpWE_1iHzg-6">
          <mxCell style="rounded=1;whiteSpace=wrap;html=1;fontSize=11;labelBackgroundColor=none;fillColor=light-dark(#23A2D9,#438DD5);fontColor=#ffffff;align=center;arcSize=10;strokeColor=#0E7DAD;metaEdit=1;resizable=0;points=[[0.25,0,0],[0.5,0,0],[0.75,0,0],[1,0.25,0],[1,0.5,0],[1,0.75,0],[0.75,1,0],[0.5,1,0],[0.25,1,0],[0,0.75,0],[0,0.5,0],[0,0.25,0]];" vertex="1" parent="1">
            <mxGeometry x="-400" y="420" width="240" height="120" as="geometry" />
          </mxCell>
        </object>
        <object placeholders="1" c4Name="User Access" c4Type="Container" c4Technology=".Net Libraies" c4Description="" label="&lt;font style=&quot;font-size: 16px&quot;&gt;&lt;b&gt;%c4Name%&lt;/b&gt;&lt;/font&gt;&lt;div&gt;[%c4Type%: %c4Technology%]&lt;/div&gt;&lt;br&gt;&lt;div&gt;&lt;font style=&quot;font-size: 11px&quot;&gt;&lt;font color=&quot;#E6E6E6&quot;&gt;%c4Description%&lt;/font&gt;&lt;/div&gt;" id="hd3ZJvUOIexpWE_1iHzg-7">
          <mxCell style="rounded=1;whiteSpace=wrap;html=1;fontSize=11;labelBackgroundColor=none;fillColor=light-dark(#23A2D9,#438DD5);fontColor=#ffffff;align=center;arcSize=10;strokeColor=#0E7DAD;metaEdit=1;resizable=0;points=[[0.25,0,0],[0.5,0,0],[0.75,0,0],[1,0.25,0],[1,0.5,0],[1,0.75,0],[0.75,1,0],[0.5,1,0],[0.25,1,0],[0,0.75,0],[0,0.5,0],[0,0.25,0]];" vertex="1" parent="1">
            <mxGeometry x="-100" y="420" width="240" height="120" as="geometry" />
          </mxCell>
        </object>
        <mxCell id="hd3ZJvUOIexpWE_1iHzg-53" style="edgeStyle=orthogonalEdgeStyle;rounded=0;orthogonalLoop=1;jettySize=auto;html=1;curved=1;" edge="1" parent="1" source="hd3ZJvUOIexpWE_1iHzg-8" target="hd3ZJvUOIexpWE_1iHzg-19">
          <mxGeometry relative="1" as="geometry">
            <Array as="points">
              <mxPoint x="640" y="645" />
              <mxPoint x="640" y="645" />
            </Array>
          </mxGeometry>
        </mxCell>
        <mxCell id="hd3ZJvUOIexpWE_1iHzg-54" value="&lt;span style=&quot;color: oklch(0.9296 0.007 106.53); font-family: fkGroteskNeue, ui-sans-serif, system-ui, -apple-system, BlinkMacSystemFont, &amp;quot;Segoe UI&amp;quot;, Roboto, &amp;quot;Helvetica Neue&amp;quot;, Arial, &amp;quot;Noto Sans&amp;quot;, sans-serif, &amp;quot;Apple Color Emoji&amp;quot;, &amp;quot;Segoe UI Emoji&amp;quot;, &amp;quot;Segoe UI Symbol&amp;quot;, &amp;quot;Noto Color Emoji&amp;quot;, &amp;quot;Hiragino Sans&amp;quot;, &amp;quot;PingFang SC&amp;quot;, &amp;quot;Apple SD Gothic Neo&amp;quot;, &amp;quot;Yu Gothic&amp;quot;, &amp;quot;Microsoft YaHei&amp;quot;, &amp;quot;Microsoft JhengHei&amp;quot;, Meiryo; font-size: 16px; letter-spacing: 0.16px; text-align: left; text-wrap-mode: wrap; background-color: oklch(0.2167 0.002 197.04);&quot;&gt;Publisher event to/Subscribes&lt;/span&gt;" style="edgeLabel;html=1;align=center;verticalAlign=middle;resizable=0;points=[];" vertex="1" connectable="0" parent="hd3ZJvUOIexpWE_1iHzg-53">
          <mxGeometry x="-0.7612" relative="1" as="geometry">
            <mxPoint x="65" y="-16" as="offset" />
          </mxGeometry>
        </mxCell>
        <object placeholders="1" c4Name="Administration" c4Type="Container" c4Technology=".Net Libraies" c4Description="" label="&lt;font style=&quot;font-size: 16px&quot;&gt;&lt;b&gt;%c4Name%&lt;/b&gt;&lt;/font&gt;&lt;div&gt;[%c4Type%: %c4Technology%]&lt;/div&gt;&lt;br&gt;&lt;div&gt;&lt;font style=&quot;font-size: 11px&quot;&gt;&lt;font color=&quot;#E6E6E6&quot;&gt;%c4Description%&lt;/font&gt;&lt;/div&gt;" id="hd3ZJvUOIexpWE_1iHzg-8">
          <mxCell style="rounded=1;whiteSpace=wrap;html=1;fontSize=11;labelBackgroundColor=none;fillColor=light-dark(#23A2D9,#438DD5);fontColor=#ffffff;align=center;arcSize=10;strokeColor=#0E7DAD;metaEdit=1;resizable=0;points=[[0.25,0,0],[0.5,0,0],[0.75,0,0],[1,0.25,0],[1,0.5,0],[1,0.75,0],[0.75,1,0],[0.5,1,0],[0.25,1,0],[0,0.75,0],[0,0.5,0],[0,0.25,0]];" vertex="1" parent="1">
            <mxGeometry x="460" y="420" width="240" height="120" as="geometry" />
          </mxCell>
        </object>
        <mxCell id="hd3ZJvUOIexpWE_1iHzg-55" style="edgeStyle=orthogonalEdgeStyle;rounded=0;orthogonalLoop=1;jettySize=auto;html=1;curved=1;" edge="1" parent="1" source="hd3ZJvUOIexpWE_1iHzg-9" target="hd3ZJvUOIexpWE_1iHzg-19">
          <mxGeometry relative="1" as="geometry">
            <Array as="points">
              <mxPoint x="300" y="554" />
              <mxPoint x="640" y="554" />
            </Array>
          </mxGeometry>
        </mxCell>
        <mxCell id="hd3ZJvUOIexpWE_1iHzg-56" value="&lt;div style=&quot;text-align: justify;&quot;&gt;&lt;span style=&quot;background-color: oklch(0.2167 0.002 197.04); color: oklch(0.9296 0.007 106.53); font-family: fkGroteskNeue, ui-sans-serif, system-ui, -apple-system, BlinkMacSystemFont, &amp;quot;Segoe UI&amp;quot;, Roboto, &amp;quot;Helvetica Neue&amp;quot;, Arial, &amp;quot;Noto Sans&amp;quot;, sans-serif, &amp;quot;Apple Color Emoji&amp;quot;, &amp;quot;Segoe UI Emoji&amp;quot;, &amp;quot;Segoe UI Symbol&amp;quot;, &amp;quot;Noto Color Emoji&amp;quot;, &amp;quot;Hiragino Sans&amp;quot;, &amp;quot;PingFang SC&amp;quot;, &amp;quot;Apple SD Gothic Neo&amp;quot;, &amp;quot;Yu Gothic&amp;quot;, &amp;quot;Microsoft YaHei&amp;quot;, &amp;quot;Microsoft JhengHei&amp;quot;, Meiryo; letter-spacing: 0.16px; text-align: left; text-wrap-mode: wrap;&quot;&gt;Publisher event to/Subscribes&lt;/span&gt;&lt;/div&gt;" style="edgeLabel;html=1;align=center;verticalAlign=middle;resizable=0;points=[];fontSize=12;" vertex="1" connectable="0" parent="hd3ZJvUOIexpWE_1iHzg-55">
          <mxGeometry x="-0.7759" y="4" relative="1" as="geometry">
            <mxPoint x="118" y="38" as="offset" />
          </mxGeometry>
        </mxCell>
        <object placeholders="1" c4Name="Meetings" c4Type="Container" c4Technology=".Net Libraies" c4Description="" label="&lt;font style=&quot;font-size: 16px&quot;&gt;&lt;b&gt;%c4Name%&lt;/b&gt;&lt;/font&gt;&lt;div&gt;[%c4Type%: %c4Technology%]&lt;/div&gt;&lt;br&gt;&lt;div&gt;&lt;font style=&quot;font-size: 11px&quot;&gt;&lt;font color=&quot;#E6E6E6&quot;&gt;%c4Description%&lt;/font&gt;&lt;/div&gt;" id="hd3ZJvUOIexpWE_1iHzg-9">
          <mxCell style="rounded=1;whiteSpace=wrap;html=1;fontSize=11;labelBackgroundColor=none;fillColor=light-dark(#23A2D9,#438DD5);fontColor=#ffffff;align=center;arcSize=10;strokeColor=#0E7DAD;metaEdit=1;resizable=0;points=[[0.25,0,0],[0.5,0,0],[0.75,0,0],[1,0.25,0],[1,0.5,0],[1,0.75,0],[0.75,1,0],[0.5,1,0],[0.25,1,0],[0,0.75,0],[0,0.5,0],[0,0.25,0]];" vertex="1" parent="1">
            <mxGeometry x="180" y="420" width="240" height="120" as="geometry" />
          </mxCell>
        </object>
        <object placeholders="1" c4Name="Payments" c4Type="Container" c4Technology=".Net Libraies" c4Description="" label="&lt;font style=&quot;font-size: 16px&quot;&gt;&lt;b&gt;%c4Name%&lt;/b&gt;&lt;/font&gt;&lt;div&gt;[%c4Type%: %c4Technology%]&lt;/div&gt;&lt;br&gt;&lt;div&gt;&lt;font style=&quot;font-size: 11px&quot;&gt;&lt;font color=&quot;#E6E6E6&quot;&gt;%c4Description%&lt;/font&gt;&lt;/div&gt;" id="hd3ZJvUOIexpWE_1iHzg-12">
          <mxCell style="rounded=1;whiteSpace=wrap;html=1;fontSize=11;labelBackgroundColor=none;fillColor=light-dark(#23A2D9,#438DD5);fontColor=#ffffff;align=center;arcSize=10;strokeColor=#0E7DAD;metaEdit=1;resizable=0;points=[[0.25,0,0],[0.5,0,0],[0.75,0,0],[1,0.25,0],[1,0.5,0],[1,0.75,0],[0.75,1,0],[0.5,1,0],[0.25,1,0],[0,0.75,0],[0,0.5,0],[0,0.25,0]];" vertex="1" parent="1">
            <mxGeometry x="720" y="420" width="240" height="120" as="geometry" />
          </mxCell>
        </object>
        <object placeholders="1" c4Name="User Access data" c4Type="Schema" c4Technology="" c4Description="" label="&lt;font style=&quot;font-size: 16px&quot;&gt;&lt;b&gt;%c4Name%&lt;/b&gt;&lt;/font&gt;&lt;div&gt;[%c4Type%:&amp;nbsp;%c4Technology%]&lt;/div&gt;&lt;br&gt;&lt;div&gt;&lt;font style=&quot;font-size: 11px&quot;&gt;&lt;font color=&quot;#E6E6E6&quot;&gt;%c4Description%&lt;/font&gt;&lt;/div&gt;" id="hd3ZJvUOIexpWE_1iHzg-13">
          <mxCell style="shape=cylinder3;size=15;whiteSpace=wrap;html=1;boundedLbl=1;rounded=0;labelBackgroundColor=none;fillColor=light-dark(#23A2D9,#438DD5);fontSize=12;fontColor=#ffffff;align=center;strokeColor=#0E7DAD;metaEdit=1;points=[[0.5,0,0],[1,0.25,0],[1,0.5,0],[1,0.75,0],[0.5,1,0],[0,0.75,0],[0,0.5,0],[0,0.25,0]];resizable=0;" vertex="1" parent="1">
            <mxGeometry x="-660" y="910" width="240" height="120" as="geometry" />
          </mxCell>
        </object>
        <object placeholders="1" c4Name="Meetings data" c4Type="Schema" c4Technology="" c4Description="" label="&lt;font style=&quot;font-size: 16px&quot;&gt;&lt;b&gt;%c4Name%&lt;/b&gt;&lt;/font&gt;&lt;div&gt;[%c4Type%:&amp;nbsp;%c4Technology%]&lt;/div&gt;&lt;br&gt;&lt;div&gt;&lt;font style=&quot;font-size: 11px&quot;&gt;&lt;font color=&quot;#E6E6E6&quot;&gt;%c4Description%&lt;/font&gt;&lt;/div&gt;" id="hd3ZJvUOIexpWE_1iHzg-14">
          <mxCell style="shape=cylinder3;size=15;whiteSpace=wrap;html=1;boundedLbl=1;rounded=0;labelBackgroundColor=none;fillColor=light-dark(#23A2D9,#438DD5);fontSize=12;fontColor=#ffffff;align=center;strokeColor=#0E7DAD;metaEdit=1;points=[[0.5,0,0],[1,0.25,0],[1,0.5,0],[1,0.75,0],[0.5,1,0],[0,0.75,0],[0,0.5,0],[0,0.25,0]];resizable=0;" vertex="1" parent="1">
            <mxGeometry x="-360" y="910" width="240" height="120" as="geometry" />
          </mxCell>
        </object>
        <object placeholders="1" c4Name="Administration data" c4Type="Schema" c4Technology="" c4Description="" label="&lt;font style=&quot;font-size: 16px&quot;&gt;&lt;b&gt;%c4Name%&lt;/b&gt;&lt;/font&gt;&lt;div&gt;[%c4Type%:&amp;nbsp;%c4Technology%]&lt;/div&gt;&lt;br&gt;&lt;div&gt;&lt;font style=&quot;font-size: 11px&quot;&gt;&lt;font color=&quot;#E6E6E6&quot;&gt;%c4Description%&lt;/font&gt;&lt;/div&gt;" id="hd3ZJvUOIexpWE_1iHzg-15">
          <mxCell style="shape=cylinder3;size=15;whiteSpace=wrap;html=1;boundedLbl=1;rounded=0;labelBackgroundColor=none;fillColor=light-dark(#23A2D9,#438DD5);fontSize=12;fontColor=#ffffff;align=center;strokeColor=#0E7DAD;metaEdit=1;points=[[0.5,0,0],[1,0.25,0],[1,0.5,0],[1,0.75,0],[0.5,1,0],[0,0.75,0],[0,0.5,0],[0,0.25,0]];resizable=0;" vertex="1" parent="1">
            <mxGeometry x="-70" y="910" width="240" height="120" as="geometry" />
          </mxCell>
        </object>
        <object placeholders="1" c4Name="Payments data" c4Type="Schema" c4Technology="" c4Description="" label="&lt;font style=&quot;font-size: 16px&quot;&gt;&lt;b&gt;%c4Name%&lt;/b&gt;&lt;/font&gt;&lt;div&gt;[%c4Type%:&amp;nbsp;%c4Technology%]&lt;/div&gt;&lt;br&gt;&lt;div&gt;&lt;font style=&quot;font-size: 11px&quot;&gt;&lt;font color=&quot;#E6E6E6&quot;&gt;%c4Description%&lt;/font&gt;&lt;/div&gt;" id="hd3ZJvUOIexpWE_1iHzg-16">
          <mxCell style="shape=cylinder3;size=15;whiteSpace=wrap;html=1;boundedLbl=1;rounded=0;labelBackgroundColor=none;fillColor=light-dark(#23A2D9,#438DD5);fontSize=12;fontColor=#ffffff;align=center;strokeColor=#0E7DAD;metaEdit=1;points=[[0.5,0,0],[1,0.25,0],[1,0.5,0],[1,0.75,0],[0.5,1,0],[0,0.75,0],[0,0.5,0],[0,0.25,0]];resizable=0;" vertex="1" parent="1">
            <mxGeometry x="230" y="910" width="240" height="120" as="geometry" />
          </mxCell>
        </object>
        <object placeholders="1" c4Name="Registrations data" c4Type="Schema" c4Technology="" c4Description="" label="&lt;font style=&quot;font-size: 16px&quot;&gt;&lt;b&gt;%c4Name%&lt;/b&gt;&lt;/font&gt;&lt;div&gt;[%c4Type%:&amp;nbsp;%c4Technology%]&lt;/div&gt;&lt;br&gt;&lt;div&gt;&lt;font style=&quot;font-size: 11px&quot;&gt;&lt;font color=&quot;#E6E6E6&quot;&gt;%c4Description%&lt;/font&gt;&lt;/div&gt;" id="hd3ZJvUOIexpWE_1iHzg-18">
          <mxCell style="shape=cylinder3;size=15;whiteSpace=wrap;html=1;boundedLbl=1;rounded=0;labelBackgroundColor=none;fillColor=light-dark(#23A2D9,#438DD5);fontSize=12;fontColor=#ffffff;align=center;strokeColor=#0E7DAD;metaEdit=1;points=[[0.5,0,0],[1,0.25,0],[1,0.5,0],[1,0.75,0],[0.5,1,0],[0,0.75,0],[0,0.5,0],[0,0.25,0]];resizable=0;" vertex="1" parent="1">
            <mxGeometry x="-960" y="910" width="240" height="120" as="geometry" />
          </mxCell>
        </object>
        <object placeholders="1" c4Name="Event Bus" c4Type="In memory" c4Technology="" c4Description="" label="&lt;font style=&quot;font-size: 16px&quot;&gt;&lt;b&gt;%c4Name%&lt;/b&gt;&lt;/font&gt;&lt;div&gt;[%c4Type%:&amp;nbsp;%c4Technology%]&lt;/div&gt;&lt;br&gt;&lt;div&gt;&lt;font style=&quot;font-size: 11px&quot;&gt;&lt;font color=&quot;#E6E6E6&quot;&gt;%c4Description%&lt;/font&gt;&lt;/div&gt;" id="hd3ZJvUOIexpWE_1iHzg-19">
          <mxCell style="shape=cylinder3;size=15;direction=south;whiteSpace=wrap;html=1;boundedLbl=1;rounded=0;labelBackgroundColor=none;fillColor=light-dark(#23A2D9,#438DD5);fontSize=12;fontColor=#ffffff;align=center;strokeColor=#0E7DAD;metaEdit=1;points=[[0.5,0,0],[1,0.25,0],[1,0.5,0],[1,0.75,0],[0.5,1,0],[0,0.75,0],[0,0.5,0],[0,0.25,0]];resizable=0;" vertex="1" parent="1">
            <mxGeometry x="520" y="910" width="240" height="120" as="geometry" />
          </mxCell>
        </object>
        <object placeholders="1" c4Type="Relationship" c4Technology="HTTP" c4Description="Uses" label="&lt;div style=&quot;text-align: left&quot;&gt;&lt;div style=&quot;text-align: center&quot;&gt;&lt;b&gt;%c4Description%&lt;/b&gt;&lt;/div&gt;&lt;div style=&quot;text-align: center&quot;&gt;[%c4Technology%]&lt;/div&gt;&lt;/div&gt;" id="hd3ZJvUOIexpWE_1iHzg-21">
          <mxCell style="endArrow=blockThin;html=1;fontSize=10;fontColor=light-dark(#FFFFFF,#FFFFFF);strokeWidth=1;endFill=1;strokeColor=light-dark(#FFFFFF,#FFFFFF);elbow=vertical;metaEdit=1;endSize=14;startSize=14;jumpStyle=arc;jumpSize=16;rounded=0;edgeStyle=orthogonalEdgeStyle;" edge="1" parent="1" source="hd3ZJvUOIexpWE_1iHzg-3" target="hd3ZJvUOIexpWE_1iHzg-5">
            <mxGeometry y="30" width="240" relative="1" as="geometry">
              <mxPoint x="240" y="150" as="sourcePoint" />
              <mxPoint x="480" y="150" as="targetPoint" />
              <mxPoint as="offset" />
            </mxGeometry>
          </mxCell>
        </object>
        <mxCell id="hd3ZJvUOIexpWE_1iHzg-24" value="" style="endArrow=classic;html=1;rounded=0;" edge="1" parent="1" source="hd3ZJvUOIexpWE_1iHzg-5" target="hd3ZJvUOIexpWE_1iHzg-7">
          <mxGeometry width="50" height="50" relative="1" as="geometry">
            <mxPoint x="40" y="340" as="sourcePoint" />
            <mxPoint x="90" y="290" as="targetPoint" />
          </mxGeometry>
        </mxCell>
        <mxCell id="hd3ZJvUOIexpWE_1iHzg-25" value="USES" style="edgeLabel;html=1;align=center;verticalAlign=middle;resizable=0;points=[];" vertex="1" connectable="0" parent="hd3ZJvUOIexpWE_1iHzg-24">
          <mxGeometry x="-0.1755" y="2" relative="1" as="geometry">
            <mxPoint as="offset" />
          </mxGeometry>
        </mxCell>
        <mxCell id="hd3ZJvUOIexpWE_1iHzg-26" value="" style="endArrow=classic;html=1;rounded=0;" edge="1" parent="1" source="hd3ZJvUOIexpWE_1iHzg-5" target="hd3ZJvUOIexpWE_1iHzg-9">
          <mxGeometry width="50" height="50" relative="1" as="geometry">
            <mxPoint x="330" y="400" as="sourcePoint" />
            <mxPoint x="380" y="350" as="targetPoint" />
          </mxGeometry>
        </mxCell>
        <mxCell id="hd3ZJvUOIexpWE_1iHzg-27" value="USES" style="edgeLabel;html=1;align=center;verticalAlign=middle;resizable=0;points=[];" vertex="1" connectable="0" parent="hd3ZJvUOIexpWE_1iHzg-26">
          <mxGeometry x="-0.2835" y="2" relative="1" as="geometry">
            <mxPoint y="1" as="offset" />
          </mxGeometry>
        </mxCell>
        <mxCell id="hd3ZJvUOIexpWE_1iHzg-30" value="" style="endArrow=classic;html=1;rounded=0;" edge="1" parent="1" source="hd3ZJvUOIexpWE_1iHzg-5" target="hd3ZJvUOIexpWE_1iHzg-12">
          <mxGeometry width="50" height="50" relative="1" as="geometry">
            <mxPoint x="530" y="310" as="sourcePoint" />
            <mxPoint x="580" y="260" as="targetPoint" />
            <Array as="points">
              <mxPoint x="600" y="330" />
            </Array>
          </mxGeometry>
        </mxCell>
        <mxCell id="hd3ZJvUOIexpWE_1iHzg-31" value="USES" style="edgeLabel;html=1;align=center;verticalAlign=middle;resizable=0;points=[];" vertex="1" connectable="0" parent="hd3ZJvUOIexpWE_1iHzg-30">
          <mxGeometry x="-0.4945" relative="1" as="geometry">
            <mxPoint y="-1" as="offset" />
          </mxGeometry>
        </mxCell>
        <mxCell id="hd3ZJvUOIexpWE_1iHzg-32" value="" style="endArrow=classic;html=1;rounded=0;" edge="1" parent="1" source="hd3ZJvUOIexpWE_1iHzg-5" target="hd3ZJvUOIexpWE_1iHzg-6">
          <mxGeometry width="50" height="50" relative="1" as="geometry">
            <mxPoint x="40" y="310" as="sourcePoint" />
            <mxPoint x="90" y="260" as="targetPoint" />
          </mxGeometry>
        </mxCell>
        <mxCell id="hd3ZJvUOIexpWE_1iHzg-33" value="USES" style="edgeLabel;html=1;align=center;verticalAlign=middle;resizable=0;points=[];" vertex="1" connectable="0" parent="hd3ZJvUOIexpWE_1iHzg-32">
          <mxGeometry x="-0.3854" y="1" relative="1" as="geometry">
            <mxPoint as="offset" />
          </mxGeometry>
        </mxCell>
        <mxCell id="hd3ZJvUOIexpWE_1iHzg-34" value="" style="endArrow=classic;html=1;rounded=0;" edge="1" parent="1" source="hd3ZJvUOIexpWE_1iHzg-5" target="hd3ZJvUOIexpWE_1iHzg-8">
          <mxGeometry width="50" height="50" relative="1" as="geometry">
            <mxPoint x="370" y="410" as="sourcePoint" />
            <mxPoint x="420" y="360" as="targetPoint" />
          </mxGeometry>
        </mxCell>
        <mxCell id="hd3ZJvUOIexpWE_1iHzg-35" value="USES" style="edgeLabel;html=1;align=center;verticalAlign=middle;resizable=0;points=[];" vertex="1" connectable="0" parent="hd3ZJvUOIexpWE_1iHzg-34">
          <mxGeometry x="0.1836" y="1" relative="1" as="geometry">
            <mxPoint x="1" as="offset" />
          </mxGeometry>
        </mxCell>
        <mxCell id="hd3ZJvUOIexpWE_1iHzg-36" value="" style="endArrow=classic;html=1;rounded=0;edgeStyle=orthogonalEdgeStyle;curved=1;" edge="1" parent="1" source="hd3ZJvUOIexpWE_1iHzg-6" target="hd3ZJvUOIexpWE_1iHzg-18">
          <mxGeometry width="50" height="50" relative="1" as="geometry">
            <mxPoint x="-670" y="370" as="sourcePoint" />
            <mxPoint x="-570" y="490" as="targetPoint" />
          </mxGeometry>
        </mxCell>
        <mxCell id="hd3ZJvUOIexpWE_1iHzg-37" value="Store/Revive" style="edgeLabel;html=1;align=center;verticalAlign=middle;resizable=0;points=[];fontSize=20;" vertex="1" connectable="0" parent="hd3ZJvUOIexpWE_1iHzg-36">
          <mxGeometry x="-0.4796" y="3" relative="1" as="geometry">
            <mxPoint as="offset" />
          </mxGeometry>
        </mxCell>
        <mxCell id="hd3ZJvUOIexpWE_1iHzg-38" value="" style="endArrow=classic;html=1;rounded=0;edgeStyle=orthogonalEdgeStyle;curved=1;" edge="1" parent="1" source="hd3ZJvUOIexpWE_1iHzg-7" target="hd3ZJvUOIexpWE_1iHzg-13">
          <mxGeometry width="50" height="50" relative="1" as="geometry">
            <mxPoint x="-560" y="610" as="sourcePoint" />
            <mxPoint x="-510" y="560" as="targetPoint" />
          </mxGeometry>
        </mxCell>
        <mxCell id="hd3ZJvUOIexpWE_1iHzg-39" value="Store/Revive" style="edgeLabel;html=1;align=center;verticalAlign=middle;resizable=0;points=[];fontSize=20;" vertex="1" connectable="0" parent="hd3ZJvUOIexpWE_1iHzg-38">
          <mxGeometry x="-0.0289" relative="1" as="geometry">
            <mxPoint as="offset" />
          </mxGeometry>
        </mxCell>
        <mxCell id="hd3ZJvUOIexpWE_1iHzg-40" value="" style="endArrow=classic;html=1;rounded=0;edgeStyle=orthogonalEdgeStyle;curved=1;" edge="1" parent="1" source="hd3ZJvUOIexpWE_1iHzg-9" target="hd3ZJvUOIexpWE_1iHzg-14">
          <mxGeometry width="50" height="50" relative="1" as="geometry">
            <mxPoint x="-90" y="650" as="sourcePoint" />
            <mxPoint x="-40" y="600" as="targetPoint" />
          </mxGeometry>
        </mxCell>
        <mxCell id="hd3ZJvUOIexpWE_1iHzg-41" value="Store/Revive" style="edgeLabel;html=1;align=center;verticalAlign=middle;resizable=0;points=[];fontSize=20;" vertex="1" connectable="0" parent="hd3ZJvUOIexpWE_1iHzg-40">
          <mxGeometry x="-0.2511" y="-1" relative="1" as="geometry">
            <mxPoint x="-1" as="offset" />
          </mxGeometry>
        </mxCell>
        <mxCell id="hd3ZJvUOIexpWE_1iHzg-42" value="" style="endArrow=classic;html=1;rounded=0;edgeStyle=orthogonalEdgeStyle;curved=1;" edge="1" parent="1" source="hd3ZJvUOIexpWE_1iHzg-8" target="hd3ZJvUOIexpWE_1iHzg-15">
          <mxGeometry width="50" height="50" relative="1" as="geometry">
            <mxPoint x="80" y="630" as="sourcePoint" />
            <mxPoint x="130" y="580" as="targetPoint" />
            <Array as="points">
              <mxPoint x="580" y="573" />
              <mxPoint x="50" y="573" />
            </Array>
          </mxGeometry>
        </mxCell>
        <mxCell id="hd3ZJvUOIexpWE_1iHzg-43" value="Store/Revive" style="edgeLabel;html=1;align=center;verticalAlign=middle;resizable=0;points=[];fontSize=20;" vertex="1" connectable="0" parent="hd3ZJvUOIexpWE_1iHzg-42">
          <mxGeometry x="-0.3496" y="2" relative="1" as="geometry">
            <mxPoint as="offset" />
          </mxGeometry>
        </mxCell>
        <mxCell id="hd3ZJvUOIexpWE_1iHzg-44" value="" style="endArrow=classic;html=1;rounded=0;edgeStyle=orthogonalEdgeStyle;curved=1;" edge="1" parent="1" source="hd3ZJvUOIexpWE_1iHzg-6" target="hd3ZJvUOIexpWE_1iHzg-19">
          <mxGeometry width="50" height="50" relative="1" as="geometry">
            <mxPoint x="430" y="610" as="sourcePoint" />
            <mxPoint x="480" y="560" as="targetPoint" />
            <Array as="points">
              <mxPoint x="-280" y="612" />
              <mxPoint x="640" y="612" />
            </Array>
          </mxGeometry>
        </mxCell>
        <mxCell id="hd3ZJvUOIexpWE_1iHzg-45" value="&lt;span style=&quot;color: oklch(0.9296 0.007 106.53); font-family: fkGroteskNeue, ui-sans-serif, system-ui, -apple-system, BlinkMacSystemFont, &amp;quot;Segoe UI&amp;quot;, Roboto, &amp;quot;Helvetica Neue&amp;quot;, Arial, &amp;quot;Noto Sans&amp;quot;, sans-serif, &amp;quot;Apple Color Emoji&amp;quot;, &amp;quot;Segoe UI Emoji&amp;quot;, &amp;quot;Segoe UI Symbol&amp;quot;, &amp;quot;Noto Color Emoji&amp;quot;, &amp;quot;Hiragino Sans&amp;quot;, &amp;quot;PingFang SC&amp;quot;, &amp;quot;Apple SD Gothic Neo&amp;quot;, &amp;quot;Yu Gothic&amp;quot;, &amp;quot;Microsoft YaHei&amp;quot;, &amp;quot;Microsoft JhengHei&amp;quot;, Meiryo; letter-spacing: 0.16px; text-align: left; text-wrap-mode: wrap; background-color: oklch(0.2167 0.002 197.04);&quot;&gt;Publisher event to&lt;/span&gt;&lt;div&gt;&lt;span style=&quot;color: oklch(0.9296 0.007 106.53); font-family: fkGroteskNeue, ui-sans-serif, system-ui, -apple-system, BlinkMacSystemFont, &amp;quot;Segoe UI&amp;quot;, Roboto, &amp;quot;Helvetica Neue&amp;quot;, Arial, &amp;quot;Noto Sans&amp;quot;, sans-serif, &amp;quot;Apple Color Emoji&amp;quot;, &amp;quot;Segoe UI Emoji&amp;quot;, &amp;quot;Segoe UI Symbol&amp;quot;, &amp;quot;Noto Color Emoji&amp;quot;, &amp;quot;Hiragino Sans&amp;quot;, &amp;quot;PingFang SC&amp;quot;, &amp;quot;Apple SD Gothic Neo&amp;quot;, &amp;quot;Yu Gothic&amp;quot;, &amp;quot;Microsoft YaHei&amp;quot;, &amp;quot;Microsoft JhengHei&amp;quot;, Meiryo; letter-spacing: 0.16px; text-align: left; text-wrap-mode: wrap; background-color: oklch(0.2167 0.002 197.04);&quot;&gt;/Subscribes&lt;/span&gt;&lt;/div&gt;" style="edgeLabel;html=1;align=center;verticalAlign=middle;resizable=0;points=[];fontSize=10;" vertex="1" connectable="0" parent="hd3ZJvUOIexpWE_1iHzg-44">
          <mxGeometry x="-0.5306" y="-3" relative="1" as="geometry">
            <mxPoint x="-1" as="offset" />
          </mxGeometry>
        </mxCell>
        <mxCell id="hd3ZJvUOIexpWE_1iHzg-46" value="" style="endArrow=classic;html=1;rounded=0;edgeStyle=orthogonalEdgeStyle;curved=1;" edge="1" parent="1" source="hd3ZJvUOIexpWE_1iHzg-7" target="hd3ZJvUOIexpWE_1iHzg-19">
          <mxGeometry width="50" height="50" relative="1" as="geometry">
            <mxPoint x="600" y="650" as="sourcePoint" />
            <mxPoint x="650" y="600" as="targetPoint" />
            <Array as="points">
              <mxPoint x="20" y="589" />
              <mxPoint x="640" y="589" />
            </Array>
          </mxGeometry>
        </mxCell>
        <mxCell id="hd3ZJvUOIexpWE_1iHzg-47" value="&lt;span style=&quot;text-wrap-mode: wrap; color: oklch(0.9296 0.007 106.53); font-family: fkGroteskNeue, ui-sans-serif, system-ui, -apple-system, BlinkMacSystemFont, &amp;quot;Segoe UI&amp;quot;, Roboto, &amp;quot;Helvetica Neue&amp;quot;, Arial, &amp;quot;Noto Sans&amp;quot;, sans-serif, &amp;quot;Apple Color Emoji&amp;quot;, &amp;quot;Segoe UI Emoji&amp;quot;, &amp;quot;Segoe UI Symbol&amp;quot;, &amp;quot;Noto Color Emoji&amp;quot;, &amp;quot;Hiragino Sans&amp;quot;, &amp;quot;PingFang SC&amp;quot;, &amp;quot;Apple SD Gothic Neo&amp;quot;, &amp;quot;Yu Gothic&amp;quot;, &amp;quot;Microsoft YaHei&amp;quot;, &amp;quot;Microsoft JhengHei&amp;quot;, Meiryo; letter-spacing: 0.16px; text-align: left; background-color: oklch(0.2167 0.002 197.04);&quot;&gt;Publisher event to&lt;/span&gt;&lt;div&gt;&lt;span style=&quot;color: oklch(0.9296 0.007 106.53); font-family: fkGroteskNeue, ui-sans-serif, system-ui, -apple-system, BlinkMacSystemFont, &amp;quot;Segoe UI&amp;quot;, Roboto, &amp;quot;Helvetica Neue&amp;quot;, Arial, &amp;quot;Noto Sans&amp;quot;, sans-serif, &amp;quot;Apple Color Emoji&amp;quot;, &amp;quot;Segoe UI Emoji&amp;quot;, &amp;quot;Segoe UI Symbol&amp;quot;, &amp;quot;Noto Color Emoji&amp;quot;, &amp;quot;Hiragino Sans&amp;quot;, &amp;quot;PingFang SC&amp;quot;, &amp;quot;Apple SD Gothic Neo&amp;quot;, &amp;quot;Yu Gothic&amp;quot;, &amp;quot;Microsoft YaHei&amp;quot;, &amp;quot;Microsoft JhengHei&amp;quot;, Meiryo; letter-spacing: 0.16px; text-align: left; text-wrap-mode: wrap; background-color: oklch(0.2167 0.002 197.04);&quot;&gt;/Subscribes&lt;/span&gt;&lt;/div&gt;" style="edgeLabel;html=1;align=center;verticalAlign=middle;resizable=0;points=[];fontSize=8;" vertex="1" connectable="0" parent="hd3ZJvUOIexpWE_1iHzg-46">
          <mxGeometry x="-0.2314" y="-1" relative="1" as="geometry">
            <mxPoint x="-102" y="-35" as="offset" />
          </mxGeometry>
        </mxCell>
        <mxCell id="hd3ZJvUOIexpWE_1iHzg-49" value="" style="endArrow=classic;html=1;rounded=0;edgeStyle=orthogonalEdgeStyle;curved=1;" edge="1" parent="1" source="hd3ZJvUOIexpWE_1iHzg-12" target="hd3ZJvUOIexpWE_1iHzg-16">
          <mxGeometry width="50" height="50" relative="1" as="geometry">
            <mxPoint x="700" y="610" as="sourcePoint" />
            <mxPoint x="750" y="560" as="targetPoint" />
            <Array as="points">
              <mxPoint x="864" y="612" />
              <mxPoint x="350" y="612" />
            </Array>
          </mxGeometry>
        </mxCell>
        <mxCell id="hd3ZJvUOIexpWE_1iHzg-50" value="Store/Revive" style="edgeLabel;html=1;align=center;verticalAlign=middle;resizable=0;points=[];fontSize=20;" vertex="1" connectable="0" parent="hd3ZJvUOIexpWE_1iHzg-49">
          <mxGeometry x="-0.3412" y="-1" relative="1" as="geometry">
            <mxPoint x="54" y="19" as="offset" />
          </mxGeometry>
        </mxCell>
        <mxCell id="hd3ZJvUOIexpWE_1iHzg-51" value="" style="endArrow=classic;html=1;rounded=0;edgeStyle=orthogonalEdgeStyle;curved=1;" edge="1" parent="1" source="hd3ZJvUOIexpWE_1iHzg-12" target="hd3ZJvUOIexpWE_1iHzg-19">
          <mxGeometry width="50" height="50" relative="1" as="geometry">
            <mxPoint x="780" y="700" as="sourcePoint" />
            <mxPoint x="830" y="650" as="targetPoint" />
            <Array as="points">
              <mxPoint x="1006" y="480" />
              <mxPoint x="1006" y="725" />
              <mxPoint x="640" y="725" />
            </Array>
          </mxGeometry>
        </mxCell>
        <mxCell id="hd3ZJvUOIexpWE_1iHzg-52" value="&lt;span style=&quot;text-wrap-mode: wrap; color: oklch(0.9296 0.007 106.53); font-family: fkGroteskNeue, ui-sans-serif, system-ui, -apple-system, BlinkMacSystemFont, &amp;quot;Segoe UI&amp;quot;, Roboto, &amp;quot;Helvetica Neue&amp;quot;, Arial, &amp;quot;Noto Sans&amp;quot;, sans-serif, &amp;quot;Apple Color Emoji&amp;quot;, &amp;quot;Segoe UI Emoji&amp;quot;, &amp;quot;Segoe UI Symbol&amp;quot;, &amp;quot;Noto Color Emoji&amp;quot;, &amp;quot;Hiragino Sans&amp;quot;, &amp;quot;PingFang SC&amp;quot;, &amp;quot;Apple SD Gothic Neo&amp;quot;, &amp;quot;Yu Gothic&amp;quot;, &amp;quot;Microsoft YaHei&amp;quot;, &amp;quot;Microsoft JhengHei&amp;quot;, Meiryo; font-size: 16px; letter-spacing: 0.16px; text-align: left; background-color: oklch(0.2167 0.002 197.04);&quot;&gt;Publisher event to&lt;/span&gt;&lt;div&gt;&lt;span style=&quot;color: oklch(0.9296 0.007 106.53); font-family: fkGroteskNeue, ui-sans-serif, system-ui, -apple-system, BlinkMacSystemFont, &amp;quot;Segoe UI&amp;quot;, Roboto, &amp;quot;Helvetica Neue&amp;quot;, Arial, &amp;quot;Noto Sans&amp;quot;, sans-serif, &amp;quot;Apple Color Emoji&amp;quot;, &amp;quot;Segoe UI Emoji&amp;quot;, &amp;quot;Segoe UI Symbol&amp;quot;, &amp;quot;Noto Color Emoji&amp;quot;, &amp;quot;Hiragino Sans&amp;quot;, &amp;quot;PingFang SC&amp;quot;, &amp;quot;Apple SD Gothic Neo&amp;quot;, &amp;quot;Yu Gothic&amp;quot;, &amp;quot;Microsoft YaHei&amp;quot;, &amp;quot;Microsoft JhengHei&amp;quot;, Meiryo; font-size: 16px; letter-spacing: 0.16px; text-align: left; text-wrap-mode: wrap; background-color: oklch(0.2167 0.002 197.04);&quot;&gt;/Subscribes&lt;/span&gt;&lt;/div&gt;" style="edgeLabel;html=1;align=center;verticalAlign=middle;resizable=0;points=[];" vertex="1" connectable="0" parent="hd3ZJvUOIexpWE_1iHzg-51">
          <mxGeometry x="-0.4849" relative="1" as="geometry">
            <mxPoint as="offset" />
          </mxGeometry>
        </mxCell>
        <object placeholders="1" c4Name="My Metting API" c4Type="SystemScopeBoundary" c4Application="" label="&lt;font&gt;&lt;b&gt;&lt;div style=&quot;&quot;&gt;%c4Name%&lt;/div&gt;&lt;/b&gt;&lt;/font&gt;&lt;div style=&quot;&quot;&gt;[%c4Application%]&lt;/div&gt;" id="hd3ZJvUOIexpWE_1iHzg-57">
          <mxCell style="rounded=1;fontSize=20;whiteSpace=wrap;html=1;dashed=1;arcSize=20;fillColor=none;strokeColor=#666666;fontColor=light-dark(#FFFFFF,#FFFFFF);labelBackgroundColor=none;align=center;verticalAlign=top;labelBorderColor=none;spacingTop=0;spacing=10;dashPattern=8 4;metaEdit=1;rotatable=0;perimeter=rectanglePerimeter;labelPadding=0;allowArrows=0;connectable=0;expand=0;recursiveResize=0;editable=1;pointerEvents=0;absoluteArcSize=1;points=[[0.25,0,0],[0.5,0,0],[0.75,0,0],[1,0.25,0],[1,0.5,0],[1,0.75,0],[0.75,1,0],[0.5,1,0],[0.25,1,0],[0,0.75,0],[0,0.5,0],[0,0.25,0]];" vertex="1" parent="1">
            <mxGeometry x="-985" y="155" width="2065" height="1012" as="geometry" />
          </mxCell>
        </object>
        <object placeholders="1" c4Name="My Metting System" c4Type="SystemScopeBoundary" c4Application="System" label="&lt;font&gt;&lt;b&gt;&lt;div style=&quot;&quot;&gt;%c4Name%&lt;/div&gt;&lt;/b&gt;&lt;/font&gt;&lt;div style=&quot;&quot;&gt;[%c4Application%]&lt;/div&gt;" id="hd3ZJvUOIexpWE_1iHzg-58">
          <mxCell style="rounded=1;fontSize=20;whiteSpace=wrap;html=1;dashed=1;arcSize=20;fillColor=none;strokeColor=#666666;fontColor=light-dark(#FFFFFF,#FFFFFF);labelBackgroundColor=none;align=center;verticalAlign=top;labelBorderColor=none;spacingTop=0;spacing=10;dashPattern=8 4;metaEdit=1;rotatable=0;perimeter=rectanglePerimeter;labelPadding=0;allowArrows=0;connectable=0;expand=0;recursiveResize=0;editable=1;pointerEvents=0;absoluteArcSize=1;points=[[0.25,0,0],[0.5,0,0],[0.75,0,0],[1,0.25,0],[1,0.5,0],[1,0.75,0],[0.75,1,0],[0.5,1,0],[0.25,1,0],[0,0.75,0],[0,0.5,0],[0,0.25,0]];" vertex="1" parent="1">
            <mxGeometry x="-1000" y="-65" width="2160" height="1265" as="geometry" />
          </mxCell>
        </object>
        <mxCell id="hd3ZJvUOIexpWE_1iHzg-72" value="" style="shape=image;verticalLabelPosition=bottom;labelBackgroundColor=default;verticalAlign=top;aspect=fixed;imageAspect=0;image=data:image/png,iVBORw0KGgoAAAANSUhEUgAAAQoAAAFICAYAAACoW7CuAAAAAXNSR0IArs4c6QAAAARnQU1BAACxjwv8YQUAAAAJcEhZcwAADsMAAA7DAcdvqGQAAJSZSURBVHhe7P1nsGRJlpgHfleGjhcRL55WqXVmZWWprp5qMegegeme6WlgsAYQ5NrSuIBh1wAjjGb7gz+WaIwZ+INGI23/gDADwd0xW5DAkrvDaYzsmUFjWlWrqsoSqeXTIrSOuHJ/XPeb8SJfilf1srqy6n5m0Z31rvLr1/348ePHz1F83/eJiIiIeAzq6B8iIiIiRokERURExBOJBEVERMQTiQRFRETEE4kERURExBOJBEVERMQTiQRFRETEE4kERURExBOJBEVERMQTiQRFRETEE1H268Lt+z6+7+N5HgCKoqAoCqoayZyDRH4Wz/PCf8t6VhRl5OyIiGfLvgVFpVLh5s2bvP/++wDMzs5y7tw5Dh06NHpqxEfA931KpRJvvfUWGxsbeJ7H0aNHOXfuHJOTk6OnR0Q8U/atBlSrVd58803+xb/4F/yLf/Ev+MM//EPu378/elrEAVAqlfjjP/5j/sf/8X/kX/7Lf8l3v/tddnZ2Rk+LiHjm7FtQ9Ho91tfXeeedd3jnnXe4ffs2jUZj9LSIA6Db7XLnzh0uX77MO++8w/LyMt1ud/S0iIhnzr4FxUfF931c16XX61Gv19nZ2WF9fZ21tTXW19fZ2tqiVqvR7XZxHCecn49iWRatVotyucz6+jrr6+vs7OzQbDZpt9tsb2+zurrKysoK5XKZwWCw63rXdRkMBrRaLUqlEhsbG6ytrbG2tsbm5iaVSoV2u41lWaE9RtLv9ymXy6ysrLCyssL29ja1Wo16vc7W1lb4PhsbG5RKJVqtFrZt77I3SPZ6j+E6cF33oWsiIj5u9m2jeO+99/i93/s9/rv/7r8D4Ctf+Qr/6B/9I77xjW+MnvoQ0gja7/dZX19neXmZlZUVdnZ2sCwL0zTJ5XIsLi5y+PBhpqamyOVyexpKt7a2WFlZ4e7du9y/fx9VVSkWixw/fpxEIsE777zD2toajuNw/vx5Xn/9dZaWlsLre70e5XKZtbU17ty5w87OTjhap9Np5ubmOHr0KHNzc+RyOWKxGAiD4r179/jpT3/Ku+++C8DS0hILCwvhsWazieu6xONxpqamOHbsGIcOHWJsbIxYLLbLGLm5ucn9+/e5d+8eKysreJ7H2NgY8/PzVCoV/tW/+le89dZbeJ7H3/k7f4d/+A//Ia+++mp4fUTEx4H2rW9961ujf3wc29vbvPvuu7z55psAHDlyhNdee41Tp06NnvoQUkiUy2XefvttfvCDH/Dd736Xv/qrv+KnP/0pV65cYXl5mVarhaIoJJNJMpkMmqahqmqojfT7fa5fv86bb77JX/7lX/Lnf/7nvPfee2xsbOC6Ltvb2/zBH/wBf/Znf8bPf/5zYrEYp06dYm5uDgDbtimVSty4cYMf/ehHfPe73+X73/8+b775JpcvX+b27dtUq9Wws6dSKUzTRNM0FEXh2rVrfPvb3+Zf/+t/zdtvv02lUqHRaHDnzh3+4i/+gh/96Ee8/fbb3Lhxg52dHRRFIZ1Ok8lkQkEh3+Pq1avhe3znO9/h8uXL3L17l3q9zvb2NleuXKFarQJw/vx5Xn311fA9IiI+Lj5WQdHv99ne3ubatWv80R/9ET/5yU+4efMm29vb1Ot1Wq0WzWaTcrlMq9UikUiQz+eJx+Pouo7v+3Q6HdbX1/nBD37AX/3VX/HWW2+xvr5Oo9Gg3W7TaDRYXV3l6tWrbG1t0W63OXbsGK+88goLCwt4nke1WuX69et8//vf50//9E+5efMmGxsb1Go1ms0mrVaLWq1GtVpFVVVyuRzpdJpYLIaqqty9e5cf/ehH/OQnP6Hb7dLtdtnZ2Qk1g1KpRKPRoNFo0Ol0sCwLTdOYnZ1lbGwMgFarxerqKt///vf53ve+x+XLl9nY2Aivq1Qq4TSo1+uhqmokKCJ+YTys0z9D2u02y8vLvP3227z99ttsbW2RSCQ4fvw4ly5d4vTp04yPj1Ov13nvvfe4fPkyt27dotls4nkejuNQr9e5cuUKly9f5saNGzQaDXK5HIcOHWJqaop+v8/q6irtdvsh2wJi+rO5ucnVq1e5fPky165dA2B+fp5z587xwgsvsLCwgOM4XL9+nbfeeovr16+zs7Oz5/0Qnb5cLmNZFocOHeLYsWPMzs6i6zo7OztcvXqVDz74gFqtFr5HrVbj/fff55133uHmzZvhexw5ciScxlSrVQaDQWSjiPiF87EKimazyd27d3nnnXfY3NwkHo9z5swZfuVXfoXf+Z3f4Wtf+xqvvfYaxWKRRqPBzZs3uXr1KrVaDdd1cRyHarXKO++8w61bt2i1WoyNjfHCCy/wG7/xG3zta1/jhRdeIJfLYRjGno5Jvu+zurrKtWvXuH//PrZtc+TIEb7whS/wjW98g29+85t86Utf4tChQ1iWxb1797h69Srr6+u4rjt6OwBisRhTU1O89NJL/K2/9bf45je/yS/90i8xNzeH4zihsbTb7eL7PrZtUy6Xeeutt7h9+zbtdpt8Ps/Fixf5+te/zm/91m/x2muvMTc3RyKR2NNGExHxcfKxtkCpUVy7do1Wq0U8Hmd6eppjx45x5swZTp06xcLCAmNjY1iWxcrKCjdu3KBer4eColarceXKFdbW1vA8j/n5eV5//XW+9rWv8fWvf50vfOELHD9+nGw2u2cH8zyPjY2N0ICp6zrj4+McOnSIU6dOcfr0aY4cOcL4+DgIo+mtW7fY3Nx8pKAoFAqcOXOGX/7lX+Zv/s2/yW//9m/z5S9/mUOHDqGqajglsiwL3/fD9/jggw9YW1sDYGFhgTfeeIPf/M3f5Bvf+AZf/epXOX/+PLlcbk+BFxHxcfJwT3qG2LZNs9mkUqkwGAy4d+8e3/nOd/jn//yf87u/+7v8t//tf8u//bf/lvfff59msxkun/Z6PTzPw/M8LMuiXC7TbrcxDIOlpSVef/11Dh06xNzcHOfPn+fll19mYmJiT0GBEFj1ep12u02n0+GHP/whv/d7v8d/89/8N/zX//V/zb/6V/+KH/7wh1Sr1XD5tNFoPHLqsbCwwCuvvMJLL71EsVhkcXGR48ePMzk5iaZpYdkl0qhbqVTodDoYhsHhw4d54403WFpaCr1dL126xPj4OJqm7XpeRMTHzd496Rnhui6WZdHv9/E8j06nw+bmJrdu3eKDDz7g+vXrLC8v02g0sG2bbrdLq9UKR2J5j36/j2VZ4crI+Pg4qVSKRCJBLpejUCg8tAw5jG3bWJaFbdvh1EBOMa5cucKdO3dC34t+v0+r1aLf7z/SVpDNZpmbm2N2dpZ4PE46nSabzZJIJMIyjF4rhZ7jOGiaRjqdZnJyknQ6TTKZJJ/PMz4+Hi7LRkT8IvlYBcUouq6Hy4/ZbJZcLsf4+DiTk5NMTU2FAuBR9gZpGBwMBjiOg+u62LYdOjfthe/7u+6lKAqmaYZLsVLQTExMMD09zcTExJ7+D8PE43Gy2SyZTAZd1zEMA9M00XX9kdcoivLQsu9+3iMi4uPkYxUUmqYRi8VIJBJomkY+n+f48eN87nOf46tf/Sq/9mu/xq//+q+Hv69+9au8+uqrTExMoOt6eI94PI5hGLiuS71eZ2VlhXq9TrPZZGtri7W1NTqdziM7mWEYxONxTNPENE0OHTrEpUuX+PKXv/xQGX71V3+Vz3/+8xw+fDgswyi6rhOLxcLlU0Xs8nzU1EdRFHRdD/0zHMehXC6H/huNRiP08JQG0IiIXyR7t+R9IEdDOQLu9XMcB8/zMAyDsbExxsfHMU2TxcVFvvKVr/D3/t7f47/8L/9LvvWtb/FP/+k/5Xd/93f5p//0n/Jf/Vf/Ff/gH/wDTp06FXbCWCzG+Pg4mUwG13VZWVnhxz/+MXfv3mV1dZV3332Xn/3sZ5RKpT0FhXR+kr4RyWSS119/nb/7d/8u/8V/8V/wT/7JP+Fb3/oWv/u7vxv+/vE//sd86Utfeuw04HGCYRRVVYnH40xOTpLNZrEsi5s3b/Kd73yHmzdvsry8zOXLl/nZz35GpVLZ8z0iIj5OPrLDlaIotFotbty4wQ9/+MOHfj/60Y+4fPkyuq6jaRr9fj/ci2FZVuisdOvWLd57771ws9kHH3zAysoK7XabbDZLMpkMHa4qlQr1ej100mq1WmxubnLz5k1u3rwZuoX3ej183+fs2bO89tprLCws4Ps+lUqFWq1GpVJhe3s79Fm4f/9+6KPxzjvvcPnyZe7cuUOtVkPXdQqFApqmsby8zFtvvRVutb9w4QIvvfTSLhfxSqXCW2+9xbvvvotlWczMzPDlL3+ZpaUlVFVlMBjQ7Xap1+uhFtFqtdjZ2eHKlSu888473LhxI7SVRA5XEb9IPrKgGAwGbG9vc/36dd57772Hfh988AH379/n8OHDzMzMkEgk8DyPUqlEu90ON1fduHGD69evc/36dW7fvs3m5iaWZZFMJsP9FqqqhnP4ZrMZroxUq1W2trYolUo4jgNAvV4P1fZRQSENqs1mk52dndCoevv2ba5du8a1a9e4detWKKhM02RiYiJ0otpLULz88sscOnQIRQTykX4SewkKwzBATFlk+Wu1GrVaLZxy1Go1er0enU4Hx3EiQRHxC+XpdOXH0O12WV9f58aNG4/83blzh3q9Tjwe59ChQ7z00kt8/vOf5+jRo5imSblc5v79+9y9ezd0x9Y0jWKxyPz8PKlUKpzX5/N5Lly4wGuvvcbFixeZnZ3FsiwajQau67K4uMiFCxcoFAqhvUD+EGr/zMwM58+f57XXXuOVV14hm83SbrfDDWIrKyuhyp/P55mdnQ3vdxBomkYul+P06dO89NJLXLhwIXyPWq1Gv99nfHycw4cPk06nH2kQjYj4uNi3RlGr1VheXmZ5eZlCofDE3/j4ODMzM7zxxhucOnWKYrFIJpMhkUgQi8XCVYJMJsPExAQLCwucPn2al19+mTfeeINLly5RKBQwDGPX6kC73WYwGGDbNgAzMzOcPn2az33uc8zPz4dOUoqicO7cOV577TXm5+dRFIV4PE4ymSSVSpHJZFBVFdM0SaVS5HI5ZmdnOX78OC+++CJvvPEGr776KouLi5imiaIo4b6OUqlEoVDg0qVLXLx4cddI32w2uXPnDltbW6TTaY4ePcobb7zB3NwcpmliGAbpdBpN08LVEcdxwt2mr7zyCsePH2cwGKBpGoVCgRdffJGXXnqJqampoS8SEfHs2fc282q1yu3bt/nggw9GD+2JoigkEgkuXLjA0tISiUSCwWAQ2gdKpRL1ej30i4jFYmQyGYrFIjMzMxSLRQzDQFVVOp0Ot27d4vd///e5efNmaL84duwY09PT5HI5EokEy8vL/Jt/8294//33MQyD3/md3+Hv//2/v2t7dr/fp9FoUCqV2NraotFo0O/3cV0XXddJp9MUCgVmZmaYnJwkmUyGGsrW1laoKQEcPXqUkydPMj09Hd6/Xq9z48YNbt++jW3bjI+Pc/HiRaanp8OpB6I+t7e32dzcZGtrC1VVSaVSjI+Po+s6a2trNJtNEBvwTp8+zcTERHh9RMTHwb4FheM44Rz/aZFWfjkiS83AcZzQ5iCLoQj/Ak3TMAwDTWztRnS+t956i//+v//vw81cx44d40tf+hIzMzNomka9Xufq1at873vfY2tri0KhwDe/+U3+7t/9u7z44othmaS35HAZ5OqCIpY35Wiv63o47VAUBdu2GQwGWJYFgGmaxGKxXQJAaj4yYM7wsu7wVEI+X/4Q9SXfe9iXQj7nUcu0ERHPin0Lil8kjUaDd999l//hf/gfePvttymXy8Tjcebn50kmkyAC0lSrVUqlEvF4nFOnToX7QJ5mK3xERMTDPFeCotPpcO/ePf70T/+UH/3oR1y7do2trS0Gg8EubUDXdTKZDIcPH+bzn/88X/jCF7h06RLz8/Ojt4yIiHgK9m3M/EWjaVpogGRoD4VpmuE+i8nJSY4fP87LL7/Ml770Jc6cORPtm4iI+Ag8VxqF53mhfeDKlSt88MEH4XZxqVVI78+FhQVOnjzJpUuXmJycDB2+IiIi9s9zJSj8oSxl/X6ffr8fLpGOGkPlfo5EIhEaGQ/KDyIi4rPGvgVFpdHl5mqJ9+5sjh76WAlKLYq+1xuECwsKkb9SRMRudE3j6Nw4F45OU8gGCwGPY9+C4vZahT968zr/y19cHj0UERHxnJAwdb768nH+9ldf4OhcEM3tcexbUHxwd4v/93fe4f/xv/5w9FBERMRzQjJu8Le+fIF/9Duf5+zhJ3v6RpP2iIiIJxIJioiIiCcSCYqIiIgnEgmKiIiIJxIJioiIiCcSCYqIiIgnEgmKiIiIJxIJioiIiCcSCYqIiIgncuCemXFTJxkz8AHbcVFVBVMPojV5no/jediOy8By8Dz/oW0aihL4oZuGhqlraKqKooDreTiOh+W4DGxH7PV4cE06bqJpKrbj4XoecVNHE1m4BrbDwHbxfB9DU4mZBqauoqoKvg+e52O7LpbtYjvuQ+VSFDBEmQxdQ1MfBOt13QdlclwvLJemKiRiBjFDx3aDexqahqYpqIoS3BQfy3bpWw624+J6o7UREfFs2K9n5oEKCl1TOTKb59yRaRzHo9zskogZzIxn0FWVvuVQa/XYrrZY3qrR6lo4I8ltTENjYizF3ESW6UKGXDqOoii0exblRofNSpPV7Qb9IWFh6hqvnJojn02yU23T6PY5PFMgl44zsFxWduosb9UY2A7j2RRH58aZGU+TiBm4nk+3b1Oqt1kvNdmutWh1Bzjug2qJGRoTuRRzE2NM5dNkUjFMTcP1fdrdAeulBqulBpVGl4EdZDwfS8U4e2iK+ckclWaHdtdiMp8ml4kTMwIB6AMrW3Xub9fYLDdpdIKweRERz5r9Cop9B67ZqbV5784WP7m6OnoI09B4/dwS//GvXeLM0hS5VJyzh6f4ykvHuHRyjuPz40zm05iGTq3Vo2/JUTjolKqqkEnFOL5Q5HNnFnnjwmHeuHCIF47NsDSdJ5uM43k+5UYHy3HwxHXJuMnf/soLfPGFIyTiJvGYwV+7dJTPnV3kyGwex/WoNruYus6FY9P82qvH+crLx3n97BLnj0xxbG6cfCZIKNwf2HR6FrYTdHhNVcil45yYL/K5s4v80vlDvH52kZdPznH+6DSHZvIYmkZvYNPsDhg4gQCbLWb5zV86w2+9cYaJXJJCNsnnzy3xS+cP8dqZRV45M8/Lp+ZJJ0wc16PRGVBpdnfVZ0TEs8LQNc4emuK1MwtM5tOjhx/iQAWFoWucPzrNL794lJnxDK7n0+lZ3N+qcWu1zEa5SW9gEzN1YoaO70PfcugNbFRFoZBNMD8xxlxxjGTcoNbqcW+jyr3NKpvVJq3uAM/zUVUF1wvUdtv1SJgGv/LKcU4uTmDoGt2+Rb3dY3mrzsp2nTvrFertPotTOX7zl86QScYo1dpcXynxwd1tqqKDjo8lScYMNiot2j0LTVGYzKU5PFtgfjJHOmFSaXa4v1nj3maV9XIzmNJ4Ppqq4ng+lWYX1/Eo5lK8fm6JSyfn0LVAmyrXu9zfrHFnvcLydp1Gp0/M0EglTPqWw63VykNTsYiIZ8F+BcUzMWYqSlAQgJWdGn/+s9v84Q+v8e/fusPVezsMLIcT80WOzBUYSwXh6VRVYaqQ5shsgXTCZKPU5McfrPBHP7rOv/vhNf7qnXvcXC1jux6nliZZmMqRSpi7nqupKomYju24XL61wZ//7Bb/4Z27XF8uMbAdpgoZXjw+i+/D+3e3+bOf3OT3v3eV7759l1trFQaWQzJuoIkAN7qmMjOe4fh8kbF0nM1Kkx9fWeVPfnyDP/jBNf7kxzf4+Y11epbN7ESWI7N5YoY2FAtD/FOBVnfA2zc3+NOf3OT3v3eF3//eFf74zes0On1mi1kWJ3OB7SIi4hPIMxEUnudTb/e5v1nlxnKJ6ys73FqrcHutzN2NClvVNpOFNNOFTNjZNVVhppDhyGyBRMxgp95htVRnrdxgrdRgebsejuCnliZZmBwjGd8tKCzbodzosrJd554Y9Ze3apQaHSzHxdCD0Rug3R1QqnVY3a5zc63Me3c2+fmNda7e36HVHeD7oOkaU4UMS9N5TF3j/laNu+sV7m5UubtR4eZqhav3tml1B+QzCWaKWQxNQxmSFH3bYaPU5PrKDjdWdri1VubWeoXryzu8fXOdSrOLqWtkkrEowE7EJ5ZnIigcx2O91ODyrU2u3t+h2uzSs2zqnT7r5SarO3XSiRj5TIK4+SBM3VQhw5GZArl0Ah+feMygOJaiOJYkGdPBB1NXObk4GUxPYg/yaAC0+xZ3N6p8cG+bcqNL33LoDoIVD9vx6A9sKvVgmpFLxynmUoylYwwsm5urZf7yrdt89527VJpdPN9HV1XGc0lmJ7IoCixv1qk0u/RtF8vxaHcDYdjsDkjGDQrZJLqm7tIoOj2LGysl3rq+xsp2jWZ3gGW7dPo2qztNas0+juvvyvUREfFJ45kICs/3aXUHlBodGp1+aHT0PB/LdrBsh0RMI2HqQccS05VEzGBpOs/XP3+K/9vf+SK/+5/9Cv/s7/8q/+zv/xr/7O//Gv/3/9NX+E9/42WOzY+TTcXDayWO69HuDWi0+8ES6tCx3sDmznqFP/nxdRTgSy8e5T/92sv8g9/+HL/9pXO8dHKOibHU0BWiTKZBJmFi6CqWu3sJ0/UDjcH3fUxdJW48SFYUnuN6tHsWjc4Ay9m9whMR8bzwTAQFgOW4dPvWLp+HIDBu8DN0DUNXw3m5goKhB74Kvu/TGzh0+/auX6szYKPc4mfXVrmzUaHdCzJ1STzPD4yjlo07suxq2S6blRY/ubrK9ZUSlUYH3/fJZxKcmC9y7sg0pw9NMD+RJW4G9hVFUdBUBV0Lyul5/i7/DcQzETEIdU1DUXYpFHi+H/hZCL+RiIjnkWciKHwpFETU7FEUJTBeKspI4FslGPmvr5T4zk9v8gc/uML//v2r4e/3v3+F/+0/vM///J13+Nm1tYeWEz3fx/X8XY5PEsf1qLV6XF8p8eYHy3zv3Xv87Noa9zZrGJrKoekcL56Y5dyRaTKJWCDAfB8fH88HzxdRwHffFgBVUVDVQKjsFhNBEGDX83Dcva+NiHgeeCaCQhEjrGnowSgr/66CpgV5NX0pUMKrfFzhT3B9ucR337nLn/z4Bn/05vVdvz/+8Q3+5Cc3uXp/h+YeDkq+7+PvoeF7vk/Pctipd7h8e5PvXb7HX71zl59fX2Ot1CRm6JxenOTisRmy6TiKEpTNcTws28F1g2XZYcGmCCOspgrN6FFmBh8iMRHxPPNsBIWikIqbjGeTZFNxVDXoQbqqEjN1EqaB63o4zoPEwL5P4OwkfCXiphG4fu+6rxi9RzWRp0QRy7A9y6HU6LC8XePa/W2+/+497m5UGUsnOH1oMtAo1GCq0RvYtLoDbNclZgQ2FfloVYWYqaPrgZelnFpEIiHi08YzERS6pjA7nuHc4SmOzY+TScaIGcES4Ox4hoXJLH3LoSVWAABc36fc6LJRaeID0+MZCtkUpqFi6iqFTIKjs+O8fGqOv/bSUU4tTpBNPn2KwLipc3gmz19/7SQvn5pnbiKLaWj0Bg6dgYXresQMjaTYMwLBlKHS6LJRbuJ5PguTY+QzCWJGYF9JJ2IsTuXJZRL4PnQHNt5e6kxExHPOMxEUqqoyPpbk2HyRkwsTHJrJMz85xtJ0nsMzBWaKWaqNLqVah27fBpEucKvS4v5mDcd1mZ/IsjSdY35ijPnJMY7Nj/PCsRleO7PI62cXOTxTeMjh6nHEDJ35yTG+9OJhXj+7yLnD0xyaLjAl/DkyyRiu59HpBUIDP1ix2K61WN6qYzsuh2cLHJrOMzcxxnxxjMXJHCcXJxhLxen0Lcr1Lo4TXBsR8WnimQgK3wfb9VAVhaXpHL/yynG+/vppvvzikdDN+sr9bW6ulam1egC4rs9mpcnt9QrNTp/pQobXzizw9c+f5htvnOGrLx/n4vEZJvMpOn2Lbt/CcZ9+9Pb9wOW707OYyKV46dQcv/65k/yNL57jV185zuJ0jnKjGzpceb6P7XpsVdrcFSss8xNjfP7cEr/x+il+85dO8yuvHOf8kWkU4PZamevLO/QtJ7JHRHzqeCaCwvW8cIeo78NLx+d448Ihzh+ZJpOKs1Nt8fMba1xf3qHeDgSF5wf7JO5v1tistAA4MjvOF144zJdfPMqFYzOMpROUGh1++P4yN1bLoTHT831qrR7lRpdOz9qzo/Zth9WdBn/1zl12am0mcilePjXHV185xsun5knEDK6vlPjxlRVqrR6eD67Yu7G8XWen1kZVFE4uTPDG+UN88eIRXjo5Tz4bZ7va5p2bG7x3Z5PewAoFZb3dY6fWpt239lz9AWj1BlQaHZqd/kMrNRERnxQOfFPYqaUJXjw+y2a5xQ/eX+buepVKq8fydp1b6xVurZa5vVbm/maNRru/ywnJ9Xxsz8VxPbp9m1qrG0xHturcXi0LN+iy2OTVwxI7PBVhQF0rNbi9VqZU7wyVKsD3fRzXpd2z6Q5sqq0em+UmK9t1bq2Vee/OFu/d2eLuRpVGpx9MP4QQclwvKNPAptbusVlpcn8r2Gx2Y6XEjdUy97dqYlereB8liMexUW5y7f4OO7VO6Hg2jKYqlBsd7qxXWd2pjx6OiHgm7HdT2IHGo0jEDH77i2f4z772Mlfu7fD//KOfc3u9giFWLx74OQRBYrxHBq5RA4cs7UGQmODaIHjNwA62mMuSK2KruaoqWCJIzV4oSrBxzNRFABrtQQAax/XCwDWu6+0qV1CmIJCOrqmBv0TgZoHredhOEIzH9R74b6iqIjxPNfqWw8B2hu74gLipY+gajuvRGwT2moiIZ81+41E8k6kHYvoxsB3aPYtaq0e11aPe7tPqDugNHNw9hATSvuEEGkWj06fa6lFpdqm1ejQ7A7oDO7h26GIf6PQtWt3BI4UE4t5SM2h0+lSbPSqNLpVGl0a7T29gB85ae1xnOy6dvhWWqdrshWUKrxu60PN8OuIdHiUkINhmH9RJJCQiPrk8M0ERERHx6WHfU4+r97f5N3/5Lv/89388eohkzODrnz/Ff/Lrl7hyd5v/1x//nOur5dHTIiIifsGkYga//cWz/INvfI7ThyZHDz/EvgXFnY0K3/npTf7Xf//+6CFips4XXzjE114/xZ2NKt/+wTWWt2qjp0VERPyCicd0vnzxKH/rl89zeLYwevgh9i0oAseiNhvl9ughNFUhn00wlU/T6VtsV9v0Bo+en0dERPxi0FSF8WySmWLmoQBQe7FvQVFtW9zZ7nBlPfB1GEYh2PSlayqe2MW515JgRETELxZdVTg8keTMfIZ86hkIivulLn95tcr//tb26KGIiIjnhJih8cWTOb5xaYqlYmL08EPsW1BcWW/zv7y5yT//y4cdriIiIp4PkqbK33h5iv/LVxY4Pftkh6toeTQiIuKJRIIiIiLiiXymBIWqgKkpjMTkjYiIeAKfmS6jKhDXVXIpnbihRsIiImIffGa6i6EpFNI6p2ZSTGZMTP0z8+oRER+Zz0xvSZgax6dT/M2Xp7iwkCEb10dPiYiIeASfGUFh6iozuRivHh1joRgnYX5mXj0i4iPzmektqhIIi0xcJz6UeCgiIuLJHLjDVUxXSMd1immDfMogZqhBvErHp913qfdsml0H14dsQiMT17Fdn41an4Gzd1EUIJcK7qlrKiuVPgqQimkUUgYTWQNFUYIIWa5Pp+9S7Vg0ey49y2U8Y3JhIc1Xz4zzO69O8Z33K/zgVo2N2oCB43F7u0u96+C4PjFDpZAyyCV1MgkdXVVwPJ+e5dLsOVTaNl3LZThc51TWZDJromsKlbZNOqaRSegYmsLA9qh3bdoDF1VRwmNJU0VRgvMrbYt6x6FnP30M0IiIj8J+Ha4OVFCoCkxkDI5OJjm/kOHYVJJsXMNyPDoDj83GgLulHvdLPZp9hyMTCY5MJOhaHv/+aoVK28EZSbunAKaucGYuxQuLGeKGxh9dLmHqKkvjcc7MpTk7F7zowPHoDjx2mgNubHa4U+qyVh1wei7N1y8W+cKJPKdn09zd6bFa7dPo2tQ6Nv/fn29zc6vLwPGYyBicnk1zbDLJXCFG0tTo2x6llsVyuc/V9TYb9QGdgYss6hdO5Pj88RzJmMZ7K20msyZzhRiZuEa773J3p8tWw0JVFaayJvP5GMWMiakr3NjqcmWtzbWNNsuVhxMaRUQ8C/YrKA506iE7wotLGS4spJnPx8gmdOKGxlhCZz4f5/RMirPzacYSGsWMyZHJJCemk0xkTBKmisgVFKJrgTYxX4hzZCLJQiGOqavM5WOcW0hzbj7NdM4kk9BJxbTw3LNzaY5PpUjFNFRAE4mDEAJNU0WWL00JhVEuqTM9FmM2F2M8bZA0VWK6SjKmkU8ZzORMZvLBsWEbx/RYjIuLWV4/OsbZ+RQzOZOxhE4hZXKomODiUpbXjo7xwkKapWKcfMogHdeZzMY4PZPi/EKapWLikYnGIiJ+0ew7uG6pZfHBWpuf3WuOHsLUVS4dyvK1FyfQNZUf3qzzp++V+fMrFVYqfTRNYXE8zuHJBO+ttonpKpPZQEBUOzadgUvP8kK1XgHSMY1jU0kOTSSIGxrllsXl1TYvLWV45fAYmqrw5x9U+LP3y7x5u8FyuYeuKRyfTpJN6tze7nF7p8tmfYDnw/mFDH90ucS//tEG3367xJu36qxWByTMQENZGI+jqQp3d3p8/0aNH96qc3W9TaVlo6kKqZiGrir0bY9mLwi7d3YuEFgTWZNWz+H91TY/vlXn5lYX1/M5Opnk7HwaQ1O4X+7x5u0GP7xVZ63aZ2osxlwhjuX6vHM/SH4UEfGsMTSF07NpXjkyxkTmybtHD1SjQBQgYWioikJn4LLTslmp9Lmx1eWd5RZv3m7wkzsNSk2LneaAjdqAnu1xfCrFXD5G3HhQJEWBZEzl2FSSYsak0bW5u9Ojb7loqhL6QjR7DjtNi+VKn+ubHd6+3+SHt+q8u9Ki2XPoWR6Vtk29E2QUb/YcthoWa7UBmw2Lnu2RiWscnkgyl49T69jcL/dYKfdZqfS5VwqEzUqlTy5hsFRMMJ42ht4aHA9qHYebWx1ubXe5vdPl2nqb29td+raHqiqs1QZc3+xwa7vDra0O76y0qLRtdFUhZWqPzl0aEfEL5kAFhe9D1/KodoLkPIWUwWwuxlTWRNdguzHg7ftNvne9Rrlts9O0WKn0aHYdDhXjzOfjpGM6qhIICVNTyCZ0FsfjZOMatY7NcrnHwPZo912aPRffD1T/2XyM8ZSOoihsNgb85E6Dn91rUO+KoLX+4xN4pePBcw4VE6RiGtmEzkw+xsJ4nOlcjExcx9QV5vIxFgtxcsndgsJ2PMoti6vrHVYrfWodh52WxWZ9QLvv0h243N7ucme7S6lp0+y5rFcH1HuBXeZxOY4jIn7RHKig8HyfctvixmaXnuVxfCrJGydyfPFUnnPzaXJJg3bfYaXSp2d51NpO0Fk6NhMZk6lcjLGkTkxXg1E2pjGeNilmTHRVodZ12GxY2K7PVmPAarWH6/u8eCjLF07kef1YjjOzKbIJnVrHYatuPXIlZZSEqTE1FuPUTIrXjo7x1bPj/OaLk/z2pSl+8+Ikv3a+yBdP5Dk7n2Y2Fw80gCFcz6fdd1iv9ql2bLp2YMBt9l0GjsfA8dhuDNhpBlMsy/VpD1wGdhC9W6YNiIj4JHKggsL1fFYrA35yp069a3NxKcM3X57iP3p9hq9fnOCVI1nm8nF00cdaA5etxoBqxyZhBsbNYsYgFdOIGyr5tMHUWIy4qdJ3PGodh5pYWr1X6nF1vUPf9vjl0wX+xstT/K1Xp/jrLxR5+VCWqayJKQyVT4OhqeSTOmfn0/zt12b4v35lkf/8V5f4x78W/P7zX13i//yleS4tZsmndHRt9519CDq/EAy+0GA8+f+eT8/y6dse7tPJroiITwwHKih8H5p9hzvbPf791Sr/85ub/NufbPH9GzV6lsdSMcErR7N87miOQkpHU8H2fMptm5tbHfDhyESSuXywtLhYiLNUjFNpBVOOhpxGAI2ew43NDt95v8K//A9r/K8/3ebn94Ks4ydnUrx+bIyLSxmyid0j/6NQAMfzubvT5X/6/jr/7Nt3+dbv3971+ye/f4ff/YM7/N4PNnh/7eFQgL74RUR82jhYQQEMbI9S2+LKepsf3Kzzves1fn6vyUq5j6LAkYkELx/Okk8a6KqC7crpSgfH81kcjzNfiFNIGcwX4syMxSg3Ax+GRu9BoN6e7bHVsHhvrcVfXKnw/Rs1Lq+0WKsO0FSFE2IZNvOUezo8PxjttxoWP73T4C+uVPjT98r88bsPfn/yXpk/fb/CT+812axbo7eASFBEfEo5UEGB0Cosx6fadrhX6nF9s8PVjTbvrbbYbliMJYxgU1ZSR1MVHDdYkbi51cVyPGbyMeYLcSayMWZzccYzBqWWzVq1T3NIUHge9GyXcsvi9naX65sdrqwHz1mvDZjKmhyfSpKOD2kUfpCdbK/ObHs+Xcul3g2mNyVhiNwY+m02BuFU6VFelHvdOyLieedABYUCpOMa8/k4E1kDTVVoDQKj4u2dLtsNC0NTWCjESZoaqqrgeMHy5nKlR7vvkDI15vIxlsbjFDPBPcpti52mTXfwoHNmExrTY4HzE2KJdLM+4PZ2l7Vqn1RMYyobIyaWUAN7gY/n+ahKEIVYVwPnK4C+7VFtOzT7jlj10DD0wAHM0ALX64mMwVw+WMVJxQ606iIiPtEcaGvXNYUT00m++fIkv/niBBeX0syMmcQMlXRcIxULVjMcL9A85PDruNAZBGp/tWMzNRYT7trBvo5ax8ZyPIbH8LPzaX7jhSK/8cIE5+bSTGYDI2g6rpGJBX4c0pCI0HRcz8eyPeJG4GmZT+lBmTRo9Rzul3ts1wdMZQ3m83GyYk/GeErnxFSSL5wo8FsvTvLLpwsceorIxRERnxYOVFBIVAUmsyYXFjN86WSBXz03zpdOFjg8kaTveFzf6NDqB4mKkSsGTrAXZL3ax9QCfwXL9bi706XWcbBH9oAgNqDN5ExeOpzly6cLfPXsOF88mefoVJJ61+Z+qUt3EHhPOp5Pvetwr9Qlm9B4+XCWr5wd5wsn8kxlTbpWsCdjudInYWicnEnyhRM5vnp2nF8+XeDVo2OcmEqSjmn4fjD1iYj4rHCggsLzfHaaFlc32jR7DscmU/zq+SJ/+/UZvv7iBEcmk5RbNj+8VaPStnZtAHM8n+2GxXK5h+16pOMazZ4jdnYGGcyH2awPuFfq0bc8Lixk+OsXJvgbL0/xGxcnOD6dZK3a592VdmgAtYQfw9vLTVIxjV86keObL03x9YsTLBbiWI7HcrnH/ZJwu55K8esXivwfXpvm6y9O8PLhLGNJndVqnxubHXaaDzZwOZ7PwPGwHA/f351p3fN9LMdjYHu43sOZ0m03uNZ2Hj4WEfFJ4UD3eiA6TXfg4vkKmhqo/5bj0RCq/furLd5bbVFuWVhuYFxEZhlTFZKmzuGJBGMJgytrbX5+v0mtY+OMjOCuG3RA1wdDV7DcYCt4o+ewXO7z1v0m1ze7lFt24PkoNJeeHWQvc93ALlFp23yw1manZdHuu7i+j6GpaGqwicxyfRrdwOX7XqnHB+ttlis9mj0n3D2aTWh4PqzX+lxb79AfKqypKyRNlVrX5r21DpW2HV4HkE/q9G2P5UqfW1vdSFhEfCzsd6/HgW4zB9BEgJh0PIg1ETMCuwRKsHTa6js0uw5958HmL3ldPmVwYibJr54bZz4f5y+uVPiT98q0+g+2dEt0FWJ6YJPIJjQMTUVVAw9Hy/Godxzag2Cfh+fLwDUK6ZhOOq6RMDU0JRjRN4e2jZuaQjqhkY4F5+hC2NmuT98OBFHP8rCHvKZySZ1sQscVGtXwsbiuMJ4xielK6JU5/CrFdGBb6dsu280HfiIREc+S/W4zP3BB8WFQgJgO84UEJ2dk3AmV712v8f2btad2w46IiHg69isoDtRG8WFQgJihMJ42OTqV5MhkAt+H++Ue5bb1kCYRERHx8fMLFxRxQ+XYZJJvXJrky6fyzOfj1Ls2NzY7bDUGDxkxIyIiPn72PfW4s93lT98v8//5ydbooQ9FOq5xbi7N1y5OkIkHgWneWWlxeSUweA6cJ+wPj4iI2DdxQ+UrZwr8zqvTHJlMjh5+iH0LinLL4vpmh8vLD2+K+jDEDZX5QowLCxmxldzmfrnPWrVPX2zBjoiIOFh0TeH4VJKLSxnG089g1cN2gwC2beHIFBER8fyhoJAwVdJxFeMp8mvuW1BsNywur3Z4887BaBQREREfP4aucm42yeeOZpjK7o7Wthf7FhTL5QHfvdHg2+9WRw9FREQ8J8R0lTeOZ/jNCwUWx2Ojhx9i34LibqnPd67W+d/eigRFRMTzSlxX+PKpMf7mpQKHi/HRww/x5MlJRETEZ55IUERERDyRSFBEREQ8kc+0oFBE7IyIiIjH85kVFKoSBL5JmSq6GiXfiYh4HJ9ZQWHqCvmUznzBJLVHcuQPiyJ25o0lNBKGGgmgiE8Fn1lBkY5pHJuM8/qRDJNZA0M/mC6tawrHJ2O8eijF4YnYgd03IuIXyWdYUKgcGo/x0lKKYkrHOCCVQlVgImOwNB6jmNIZSSgWEfFc8pkVFKqqENcVMjENXVMOLPen4/ncLfV5e7nDcmWwK9pVRMTzyjPxzFSVYJ6ejmkkTRVTD8LJ9e1gM1m772F7u4PQKkDCVEiZwTUxI7Ab+IDj+nTERrSe9SB3p6EpjCU0immd9sDDcX1MXSFuiJiX4sadgUuz79IZeFiOTzGjc3YmwetHM1ycT/Ltd2vc2unTHnh0Bi47LZuB46NrQbzLlCiPoSqoahB80/GCWKCtvkvPDu7r+kFIv+kxg0xco9EL7uV6kDAUJkWekr6I25mKaRhaEJtTUYJ0Ao2eS1vcczROaExXSMdUUqZGwgxkvOv5DByfrsjwbjlDcUgVyCU0ckkdy/Hp2S5xXSUV0/D8oE6bfZeuFYUU/6yxX8/MAxcUqohYNTtmsjQeY2rMIBvXcD2fasdhtTZgpWJR6znYTiAIFNHpp8d05nMm02MmuaSOqSl4QM/y2KxbLFcHbDYsOlYgZHIJjdMzcV49nGGlOqDVd8nENcZTOqYedGxFge2mzZ1Sn9XagFLL4aWlFK8eTnNuNsn0mMG1zR6VjkN34LFWG/CTe22afZdMTGMmZzKbM8klhNATc4mB49PsuyxXBmw2bCpth67tYWoKrxxKMZczuVcZ8P5aF8v1mc4avHE8Q8JQKbUdBrbHbM4gaWqYmiKSIfnc2elxv2KxUbdo9h90YE2BYlpnoRCUZzJjoCoKPduj3nXYatqsVAbUew+EhaEpnJtLcHY2SbPnstmwyCU0ZnMxHNdjvW5xuzRgrbZ3esSITy/7FRT7jsJd6zrcKfW5utkbPQQi9mU+qbNQiHGkGGehYDKV1SmkDFJmMNLbrk+r54ZqualBNhEIiaXxOPP5GJNZg/GUQT6pM5YIsoc7nk/fCra5ez7kUzoXF1P8+rkchhj9ixmD6azBeNpgIq0xmTVIxzQUJRjJKx2Hk1NxTk0nmRmLkTSDPB0JUyVpqgwcn5WqhaYpzOVMDk/EWSwE2cEKaZ3xlM54yqCQ0gNhpqtCs/Do2h4xQ+X1I2nOzSfpWj73KwNcD2ZzBr92NsexyQRxPXjWXN6kmDYopnUmMjoTGQNdU3B9n0bfo9kLtvLraqChTY8Fto+FQozZMYNcUicV0zB1FUWBnuVjuR6O5weBgnWFFxfSvHEsQy4ZaBETaYO5fJDpbOD4VDoO1c6DVI0Rnw10VeFQMc6ZmQT55JPz8x6ooJCGvKOTcfLJYDpwZ6fPO6tdSi0bX4F80mAqa7JRt+jaHooSCJZjEzEKaRPXCzrX5ZUu7613uVPq0xl4qGrQmQ1dpdRysF2fdFzjUDHGubkkvg/tvsudnT4/X+5weaXL1a0emw0bUw/UflVVuLndp9xyaA9cTB3GUwZ/fKXOd683+fG9Nte2+tQ6DksFk0tLafIJnVLL5vpWj7eWO7y31uV+1aLdd4gZCouFGLbjU2o71LpuEAZ9OsFExmCzYXO31MdxYTyl88JCivGUjiO0q3dWu1xe6fDeeo87pT71nstM1iQV16i0HTYbNgqQjWvMC6GCD5t1i58vd7my0WOl0qfRc1FVBVMLNKiB49O3g6nT0Yk4J6biJAyVVt9juTLgrZUON3f6LFctyi0nCl78GWS/guJAjZmqEuS4mM+bJE2VStvmfmXA3XKfm9t9bmz1uVPqs163gvwano+mBHaGpfEYCUOh2nVYqQ64X+lzvxxce7ccdIaUqTGVNTBEh5D4XpB7Y6NhBc8rBdfc2gkEWqntYOoq2biGAtR6Djstm0bPxfF8dpo2y9UB9ysDtps2Pdun2fdYr1ncLQdlvlsacL884F55wO2dHrd2gvdImRqZhEbsKZdB+7ZHueWwWrG4WxpwpzTgzk6PG1t9bmz2cFyftKkSN4L7qQpkYipL4zFyCY1m32W1NmC5EtTRvcqAlapFuW1TTOtMZw3SI3lRZab2mqij5cqAlcqAUsuma0cBiCKezIEKCkVRSJsqkxkDU1do9F2qHZv2wGO7ZXOnNOD99S7vr3dp9l0cP0j6k4lrzObMIBSeUIU7A4+uFajfmw2bZs8NnKREFvThbun6sNmwuVcesNGwaPRcOlZgaNxq2tS6Dp7vowubhesFeTpcEY7Tdn0sJ/jZro/r+ZRaNh9s9Liy0WOtZtHsB/k4VDVY2Qju76FrCqauoj7l8mqr77Jas7hT7lNpO7QGLu2BR7UbaBB9x0NVFDQhCRUFUnGNhXwsTNqMiE6UMIJ8Jr7v47o+kxmDyWxg9xjG9aHeddmoW5TaQd12Bh49y8OJ5ETEU3CwgkLEwJRz977t0bV9XA+6lk+57bBWs1mpWvTswCCpKpAwVIrpYH7esYJO7vrgAbZLkHTH9tDVQBCpqniYwPN8yp2go9W6LrYHnliZCDqEj+cFguxp8IFm32OtZrHVCFZAUqbKzJjBUiHGofEY8zmTiYxBwgwSHKlPee+u5bHTtNlsWHStIAmS64Pl+LT6LrYrDLyhoFBIGApT2cA+cXwyzrnZJK8cSvPK4TQvLqY4O5fk2GScxfEYxbQRaiMS1wsMrzutQOA64plSUEZEPImDFRRKYGlPGsHqgO8HHfZxKEqQEjAZC1YpXG93AuBgxA/+pqti9B6+gThnYHt0LRf7MfPtp+vKD9CUwDFrZszg+FScFxdTfP5omr92aoxfPZvjC8czjCd19NECPQbb9enaLl3rwTLmkzA0hWxC48xMgr9+Ps9/9NoE/8nnJvg/it9//FqRb75Y4NhEnLTI5D6M78PACTQ06zH1ExHxKPbRxJ8SJUgf6IsO/LQ88XwlUPs1ZW/nKM8LNJfH3uMpUYBMXGWxEOPCfJILCylmczExJXG4s9Png/UuV9Z7tEUqwqfFJxB6+7lGIZhqbTYsfni7yR+9X+Pfvffw7//3TpUf3WntmZrQ8wPNYj/PjYiQHKig8IXhLGiQT9cifR7YDDw/SCY8iqIEUxRFOCaxh3bwdE97OlThqHSkGEwz8kkNH59KO/ADub3T59pWsFIRTJP29/T9nR1MwRzPZ6thc3m1w/duNvkPN/b+fbDR3XO5U2p3+312RAQHLSjwgyzjA8cPjWSjHXoU3w86Qd8K1v+lUBhGUwOj5+PudZAdQFVhPK1zZCLws9hqBA5b98UKw3rDptxyaPWDVZMDffgeeF6wWtLsu5TbDltNi/X68M9mvW6z0bCpdtxouTPiwDlQQeELj8VW38VyPQyxtq8qYGiQMlVyCY18MnBdVoSgkEt3tusTN1RiRqA5KMLZKGWqJIRTkeMFc/uD6Aq+HxhUNVVBk1qLMCCOJXSmx0w8fO6V+9zc6rFes6h1HBzXJ24o5BJa6P35rPB9n4HjUe+69G2PmK6QMLSwrLoKcUMhG1fJJzUycRUj2okWccAcrKDwfdoDN1gpsD2yCZVcUiNuKBTTOiem4rx2OM0vHctQSGnoWtDxm32X1aqF4/mMpwKPzLiuYGgKqViwdFpI6ygE+zbcAxjFgzl7MG+PG8FzAhft3RpNTA+Wb5MxFV2DVExlNmdweibB+fkUmfjTL41+GHwf2gOXlcqA9sBjLBF4cMYNlZge+KAs5E1emE/yS8cynJtNMp56sgNNRMR+OFBB4fnBUuZqLVj6m8gYnJhKcGYmyenpYAlvNmeQlSOxWLprdB3uVwb0LI9CKlD5T88kODOT4ORUnCPFwJpf77ms1y1s1/uocgLH9Wn3Xepdl4mMwcmpwEttcdwkbih0+i7ldmAUnMuZnBTvcWo6weFijKkxk3Rc7DwdvfkB4gOtvsf96oBaxwm8UcdjnJqOc3Y2wemZBCen4xwuxpjI6GHEroiIg+RAm5QvHHvulwd0Bh7zOZPPH83wmy/k+eKJLPN5k47lcWu7R2sgfAg8aPYC1+JGz2UsoXFpMcXXzuf4xsU8v3omx+mZBAD3ysFqQ9f66Nb7vu2x3bRZqQ04Uozx106N8Rvnc7x+JMNYXKPcdri51aMz8Dg6GeeXT47xWxfzfPXMGCemEijARsOib3/0sjwOzw+ctO6XB2y3bGK6wqnpOF+7kOe3Lub5lTNjXJhPkU1obNTt0DksIuIgOVhBAfRsn0rHZqdlU+0GeyoGduBhud20Wa4EbtBdK1hW9IGB61PrBm7VpbZNs+/Sdzws4XNQaTus1YLr1uoWlthMNnA8NupBisPtZuAYtRfVjs3tUp/l6iAwPgJd22OjYXFlvctWUzzT9rBdH8cL9rTcFS7bO02b1iAwEnatYGPZcmXAlfUub690uFfu0xKd0/V8NhoWt7b7bDctHNcXUzKPm9s9bu/0afQeXpVArGwsVwbc2elT7TxY4rRcn3rPZadps9N0qHWD3acDJ7hvpeOwXre4Vxqw2Qy0OYQRdKdlcX0z8C59VP1ERDyJA99mjnRUimuMJTRSpoqpq7he0Mma/SA2hOPuHokVIBVTyMZ10jGNmBEYQV0vMJB2Bi6tgUtv4CHbu6krFJIaExmDrYZNfWhH6jD5pEYuqeG4sFG3cP3ACJgwVTIxsVdDU4Gg4201bWwn2AmaiWtk4sFeDlmevu0Fe1V8n3zKoN13qXYc2gMPVYHJTLCrs9V3qXQcPC+ItTE7ZuL6gYdqa2gLuURTCFzZNah1g2nRMAlDIRvXSMeDelWUQOOwXJ+eFWw379mBW7YvlnkLKZ18UqMz8Ci3baxI2Yj4ENvMn4mgiIiI+GSzX0FxoFOPiIiITyeRoIiIiHgi+556rFYH/OB2iz+7Uh89FBER8Zxg6gqvHU7za2dzzOdjo4cfYt+CotZxuL3T48oeEa4iIiKeD4IIVzHOziTJP4WD3r4Fhef7eNEuxIiI5x5FCbYvjIYl2It9C4pm32Wj7nC/Fq2zRUQ8r2gqTGc0DhUMMvEnmyr3LSjKbZdr2xaXNx6OeRAREfF8YKhwbMLgxTmT8dTu0Il7sW9BsdNyeW/T4qcrUS6IiIjnFUOF09MGry7GmEw/WVA8WeeIiIj4zBMJioiIiCcSCYqIiIgnEgmKiIiIJxIJiogPhaoEO3CjIDmfDaLPHPGhMDXIxBTSMSVqRJ8Bom8c8aFImyrTGY3pjIYWtaJPPdEnjvhQZOMqC3mdhZyOEbWiTz3RJ474UGgqxLQgHcNemdsiPl08E89MhSCPR0xXMLQgDaAvIl8PXB/LCRLkjmJoYGrBNTLzOD64vo/tBiHxZBJfROi4mKGQMhQGIrSeroKhBs9zPZ+BE2xk01QFXQ3ur4iQdpZMVjSU4s/UIGUGDd92g2RAhhqEwfNFXEvLCa51Ho5mB0PvYWoicdFTvEfcUEiaCgNH5hoJnivzm/gib2nf2bv+FMDUZf0FeUpkHdhuUN7hZyLKmRBpEfqOH+RfkcmWxHNdPyivrCdNhbSpcKxocLig4/k+P1+16It36jk+XWuPjxvxiWK/npnPRFDoKuTiCoWURjaukNAVPB/alk+161LrevTs3Y1dVSAbV8gnVLJxlaShoGuKSIDj0+gH1zb7fhj3MWHAVEZjKa9T6QTBeJOmQtpUAIWe5VHpeTiuj6kppEyVsUQQzn7g+NR7HqW2S2sQ3FNRIJ9QOFzQ8UVGc1NTyMRUdE3B8306lk+j51HrejQHDyca1kbfw1TQ1KH36AXv0ej72ELQJI1gg85SQafcCRIJJwyFlKmITOnBeY2+R6njUe96tIeSHCuizgtJlZx4bkwPkkT3HI9m/0F57aG9fPmEwuyYRi6ust32MNRASCaMoMyKEtRTretR7ni0LY+YFtTPoXGdYkoFH1ZqLrYX1M1W02W5Hm0Y/KSzX0Ghfetb3/rW6B8fR8fy2W67rDf2bgyaEnTgYlpjLqcxm9WZyWrkEypxIximLNenbz8YxVUlGA3HkxrT2eCa6azGREqjkFTJxjV0VWgk9oORMR1TOVwwuDRvoqpB8NnJtMrcmEYxpQUWeVUhaarkEyqTaY35MZ2pTCAwDE3BEaOg7QZln0zrXJyPUUwHzywkg/JMpINrkkawLVeO7u6QVqEqENOhmHrwHlOZB+8xFg8Mf5YYoaXAy8RVjowbvLRgogJJU2UirTGbDd5jIqNRTKkkjEBYDRw/FBSKmAYk9EDYzIw9eG4uGVyjqYF2NLB3J3KeymicmDQ4VjTwPJ98UhgosxoTaY3JtMaYyDzmCO0sqSucnDKYG9NJmyqmrpCJq4wnNeK6Qsf22Wo9QtWK+MSgKTCR1pgbC3LBPIkD1SgUIBtTKKZV0jEVTQk6t+35pE2VZCxQ/wcOXN2yafaDxp40YDylko5pmBrYolHKKUw6pqKrCpYTjIwrdZeBC7mEyulJg9eWTLbbLjstl2o30CAyMZVsQmUsruL5Pq2+R6PvUe/7JEUKvnRMQVcU3lqz2G4F6QMWcjq/dDhG0lSod13KHY96z6PvBFObdCwY5QPtwGWzFWhHqhK8RyCggqxijvtAGATLiSqaqogUih7LdRfbCzSBM1PBe5RaLuWuR7Xj0Rq4OF4QjSgTC7QFVYHNpst7mza2K1M1KuQSChkRmdt2CaYJIpWjqio4rk9r4NHo+2G9L+U1LswaHMrrbLVcKh2PRs+ja3viXQPtZCyuYjk+10s2Oy2XsYTK0XGDhZyGD7y/EaRKGLh+oL309tWkIn4B7FejeLIo2QeKEozq40mVmAatgceW0D7Wmi7bLY96z6dn+bgip4eqBGHzJ9IacR26lkep7bHZdFlrBL+tlkvP9ogbCvmkiqbuTn7sE4zSrX5w7VojeGaj55EwFOK6Qt/2KXc81hsuq3WHUtvF96GQCtT0YXucL+bmfQdqPY/NVlCOjaZLqR0IjYShUExrYW5VVQlypE6kVUzxHjvt4HnD79F3fBKmwph4j2F8Hyw3yAy2I+ut4bJSc1itObQHPjFdIW2q4YczNBiLKxSTGq4P9Z7HVstlQ5R3qxXUg6YqFBIaafPBVEY+M0hBEEzFpLa4WndZrjlst118scphagqWC6W2R6Xr0bWD6cZGw2G17rLVdGkOIiHxaeRgBQWBUU6q9R0rGL3aFtS6QQNerQeNX2bYksKlkFTRNIW2FYxKHSswirUHwRy5Z/sYmhJoKsMtXWbTGnhUux71vkdr4FPtebQGHgrB6FrreVQ6wX3rvaBctutjaiqastty7/tBDpJyx6XccWn0PdoDUZaeR9fy0bVAK9E1GSkoyN1RSKmoikJ7EAiurniP1sCn2g3ygZjiPdQRgef50OgFwq7a9WgNoGtBewCVrkdnEKj0uiYsjYCpKmRjKkURU8AS2oTr++F0YeD4GBrkkoGdZlgoesJYWWq7lNou9Z5H24KuDY1eYI+xXR9dGGaDPCKBYVVmeus7wfRt4Ab/HfHp42AFhRJY3dNmYPyz3GCa4YnRud7z2Wl7bLc9BkNJamJaMGJpSpBprC+u8UUn71jBvFyuDqhK8CyJ70N7EAiJnh1Y57u2T8/28XlgDG32g8YdlCuwSyiKkHBD+AQaQbnjUut59IXh1fWDssgVgqQZlBmCDOhxXWEsHkwP+vI9xP0cLzDmDpygw8VFQqFdz/UDg2W1Gwg0qXW5PvRtGLgP7DoSXQ3qezwV2GGKqcDOMD+mM5vVmUxr5JNqaOhMGLtzpfoiE1mp7QVCcMh2ZHvB93O8oIpGihvxGeJABQXCsGbqD/YAPEkRVRAdRy7p+Q93BtcL/q6qQccYxQccN5ib7zWieX5gL3jajHpyCtC1fAZDHYfhsiiB3UEuI4bvoQfCw/MDITHM8LX6HtNCXyyBPm7pdRRVBdOAfFLl7LTBa0sxvnAkxhePPvh9binG0XFDrN7s7vGhIBL1N1r3ERE8C0HBA634iUJiF+Kiva6Rf1OUh7UJie8Hv0fxmEN7IufuclQfRVWCTjo8ZVHC/9n7Gvk3adPY4zVwRcfd6/pHoSjBlKDc8VgTtoVdv6rDrbLN7XJgm/FGhJAv8pRGQiLiURy4oJAage8/oreMEJzm4z4msrcihYT89x5d7Ckftz8e0ZlDRh7qE0Qof5TACt7jgQay53s8QeDtReCj4bFSd7i2bfP+5shvy+a9DZsbJYdSJ1jRGOWZ1F/Ep4YDFxSeL41po0cejecF82HPf9CJhglH4NEDzwhFTqG0YIow/FhZllAgir/7YmphCQ/Rj+s9fD+YdvWdwEGs2g1WZnZGfqVOYPvo2ZFAiNg/ByoofD9wce47gcVdU0AXI6gm5vRxPfD8k6YGXxjNunZgvDOEC7fsS6pwxjLEnN71gxH0mSIcpzLCs1IXqxMKwd9lWWw30B58MapbbrDCId9jOFaDKu4pN1AFQuajv4fnB/4LPctHVQJ3bPnc3fUe/A4qfsTwJ3jcVCri08EBNZsAH7DsYHnTdoI1/7gZjMopEyZSKot5jUN5TXg4BtpE3w4cjFzPJ2UGex50VTRyPVgRSZqBom65Hp7/aPX+IFAVhbSpMZUJPCOTpoKuBWUZi6ukTRWFwNjpiqmG5wcrHdVuUL7R94iJa5PCC27gePhPabB8HLbr0x4EKxYxPXD7jukKujCYpk2YTKssip2e+cTDqy0fBl8kglLwielC+1IPuEFFfGI40O/q+4FmUO16WG7gxVhMqhSTChNplemsxkwmcEqK6cEo5PnBmn25E6zXp2OBw9Z4SvySD9yXB45Y4nyGQoIhzWEsrjKeDJYci0mV8URQpqQZbEKr9oL9Jb7QdDq2T0kIvAfvPvoewdJsa3Aw72G70Oz7VDouuvqgzIWUykRSZSqjMZPVmM4E75E0AiH3UXHENEtRAm/UybRKPqmQMEbPjPg0cLCCgkBQlNsuA8enkFQ5PmFwcS7GqUmD8aSK5cG28G70xEjcs4JrerZPwlBZKuhcmDW5NGdybtpgLquhoFDqeKzXXSzn2c6zfXz6duB0lRQ7JS/MmpybMZnOaPg+VERZ+o6wV3iBhlFqu/Qcn5Spcqig88Jc8B5npwxmsho+SuixaQ/tu/iwWG7ge7HTDty9C8lg/8ZL8yYX50yOFXXySRXbC4RJa+A9tGz7Yeg5frApzoeTk8F7np4ymM7sse4b8dxzoIICAged5iDYVzAQjguGpuD7Cl3Lp9Lx2Gm5oSOWtFG0hfdi1/bxvMAOILdLW670WAw8JaWPgeP6NAceGw0nGKGHeoDvB85bW63gGlkWieUGLsubTSfY2zC0FCA1o3LHo9X38P3AG1JToe/4NPoelY5LteOFG9R8Mbq3Bw/ew/UD9d/QFFSxx0XuWK10vLC8thvcc70RuGnvpWn4QMcKvEvrvQcrF64PPRvhUObRF5VjaMHuW8+HziC4rtQJPEzltK3v+NTE97Dc4D1HsV2fWtdlu+XSsR6c07N8yh2XSjcQPKoShBNQD7xFRXwSONBNYRIVgu3eMSXcLu55gadiexB4HTp7jKZJI9gvkTSDWA6KElxnuUGn71oe/aFYDIYWbEIrJDXKnWC7uBQiCpA0YSKlYbs+lW5wrUROLbJxle2WS9cKvC0XcjqfWzJp9j2ubtuBliO2invCJbpnB67Z/T00GwVImJAydr+HjAvRHXoP2dlNTW5N1yi1XdqifkbJxoKdmo4bTHGGlzlVJYhhmTQU4kYQUAbkBrtgT0bX2h2TItgcF5y70w6E9+j7mFrgzBXXFeo9L9xQZmjB9SlTJRUL7DpWGA5gj8JHfKLY76awZyIonlcMNRAUry2ZVLoeb69ZlDtRo4/49LFfQREpihEREU8kEhQRERFPZN9Tj3Lb5dq2xeUNe/TQc4+uwmxW48V5k1rP44NNO5pvR3wq0VU4PmHw4pzJuAhR8Dj2LSia/SCwyf3KkGXwU4KmBoa7wwWdtuWHwWIiIj5taCrMZDUOFQwy8SdPLPYtKFzPw3Y8rL3M8s85inBF1kWAlsdtVIuIeJ5RAF1TMQ0V7SnWtPctKBqNJqtrq9y5c3f00HOP9FhURKh79rndOyLieUHXNGbnZjl65AjZbHb08EPsW1BsbW1x+fJlfvSjH40eioiIeE4wTZNz587x+uuvMzU1NXr4IfYtKNbX13nzzTf5y7/8y9FDERERzwmmafLyyy/zla98hdnZ2dHDD/HkyUlERMRnnkhQREREPJHnVlCoqoqu62jak9eAIyIiPhrPraAwTZNEIkEsFhs9FBERccA8t4Iin88zNzfHxMTErkjYn2bGxsaYn59namoK9SnWviMiDorntrVNTk5y9OhR5ufnPxPTD0VRmJ6e5sKFC5w4cQJd10dPiYh4Zjy3giKTyTAxMUE+n/9MjK6KopDL5Zifn2dycvIzIRwjPjk8tz1MURRUVf3MTDsiIn6RPBOHK0VRSKfT5PN5xsbGSKfTKIqCbdt0Oh0ajQaVSoXBYICqqmQyGYrFIrZt02636XQ6DAYDfN9H0zSSySSZTIZMJkM6nSaZTHLixAkmJydpt9tcu3YNx3FoNpusr6+zvb0NQCKRIJfLkcvlSKfTGIaB7/thGWq1Gs1mMyy3qqrkcjkWFxexbZtarUY8HieXy6GqKt1ul62tLVRVZXx8nFwuR6lUQtd1UqkUyWQSTdNQFIXBYECtVqNcLtNutxkMBuEzYrEYqVSKYrFIIpHANE0Mw0BVVWzbptvtUq/XqdfrdLtdbNtGVVVeeeUVXnjhBSqVCn/8x39Mr9cLy74XqqoyPT3N1NQUjuPQ7XaJx+Nks1lUVcWyrIe+x2hzMAyDTCZDPp8nm80Sj8fD92s2m9TrdarVKq7rhtfous7Ro0cxTZNms8lgMGBycpJYLIZt21QqFarVKp7nkU6nmZycJJvNYhgGnufture83htKb6brOtlsdleZVFUNr61Wq9RqNdrtdliuVCrF/Pw8uVyOer2O4zhks1kSiQS6rqMoCr7vUy6XqVQqNBoN+v1++MxPG/t1uNK+9a1vfWv0j4+j1WqxtrbGvXv3Rg+BaJzxeJxCocDMzAyzs7NMTU1RKBRIp9PEYjE0TQs/vqIoZLNZFhYWyGQy6LqO4zjhR4rH40xPT4cNfnJyMvy3PN8wDPL5PLqu02g0aDQamKZJNpvdVYZisUgulyMej6NpGo7jhOWQQmlqaopLly4xPj4OQC6XY3Z2llwuFzb8dDrNiRMnOHPmDIqikM/nw7IVi8VwShSPxwHo9/thJ4zH4+Tzeaanp1lYWAivGR8fp1gsUigUyGQyxONxfN+n1+th2zaKojA3N8f09DS9Xo9bt27hOI/fwSs77AsvvMDExATxeJxiscjMzEz4HNlRLMvCdV1c1w2FhaZppFIpJiYmmJ2dZWZmhsnJSQqFAqlUCtM08X2ffr8f1iFCuLz00kssLi5iGAaGYbCwsECxWCSZTGJZFv1+n2QyydLSEocPH2Zubo5iscjY2BhjY2NhuTzPo9frhR1e1/VQuMzOzjI9Pc3k5CTj4+PhwKSqKo7jYNs2th2EQ8jn85w7d44zZ84Qi8VIJpPhtfKbTU5Oht9MCtFPK5qmMTs7y5EjR8hkMqOHH+LABUU8HmdsbCwUDIqi0Ov16PV6WJYVCgff9/E8D8/zUFWVdDpNNpsllUqFmoXv+2SzWY4ePcr4+Di+79Ptdun1eiQSCQzDoNPpsLKyQrPZpFqtUi6X6fV64SgoBchgMKDX69Hv93EcZ9cIZds2nuehaRqTk5O88MILZLNZbNvGdV1s26bX69HpdKhWq6TTaY4cOcLRo0fDBiwbVqfTwXXdsEHH43FarRb1eh3f90M7w8zMDPF4PNQgut0u/X4fTdOIxWJkMhlM06RWq4UNdr+CwjAMDh8+zJkzZ8jn8wBhx2u321iWFWo4mqaF7+o4DoqikEqlyOVy5PN5EokErus+9C0lUsh4nodpmly6dInp6elQIA9fW6/XGQwGTExMcObMmfCbt1otms1meI9kMomiKNTrdWzbRtM0MplMKBSSySSO44Tf1bZtdF0Pp6SO44TtKJfLcfr0aY4cORJqH8N1L+tCanj9fp9SqTRUm58ufqGCQlVVxsbGmJ6eJp1O0+/3WV1d5cqVK9y/f59yuYxt22FHkB2/2WzS7XYpFotMTk5i2zb1eh1FUSgUCpw/f554PM7Kygrvv/8+V69eDT/o2toaf/Znf8b169dZXV2l1WqFWkihUABge3ubmzdvcuvWLVZXV+n1euFomc1mw6mBfN7x48dJpVJYlsXa2hpXr17l3r17lMtlWq1WqAHNzs7ieR7b29vcuHGD999/n5s3b7Kzs4PneaEmU61W2d7exnVdpqenOXr0KMVike3tbe7evcvNmze5ceMGy8vLDAYDEolEqCavra2FQma/gkLXdebm5jh06BCZTAbbtllZWeHy5cvcvHmTarUafrPx8XE8z6PT6YT1UywWKRaLobC7e/cu165dY3l5OSxTIpEgn8+HwtS2bQzD4PTp04yPj6NpGo1Gg2vXrnHz5k22trao1WqhtvPSSy9RKpW4du0a77//Pjdu3KDb7YaaTCwWY319nX6/j2EYTE9PMzs7G5bp1q1b3Lhxg3v37rGzs4OiKCSTSdLpNL7vUyqVcF2XbDbLoUOHmJ2dxXVd6vU6V69e5erVq9y6dYu1tTVarVbYbgaDwZ5t/NPCfgXFgRozFUUhk8kwPT1NPB6n0WiE80HHceh0OpTLZarVKvl8nvHxceLxOK7r0u/3qVQq1Go1TNNkcXGRY8eOMTMzg23bVKvVcN4oVdxHEYvFmJiYIJvN0mg0Qi3DcRwsywrvJVXidDqNNrSK4Ps+jUaDtbU1dnZ2wg4wGAxwHCfUhrrdLrdv3+bevXvhHN91XVqtFpVKhW63u6tcAOVymffff5+f/OQn3Lx5k1KpRLfbDUfznZ0dtre3GQwGmKa5q1wfFsdxKJfL3L17l/X19XDe3263wzl5Op0mlUphGEEGH1VVKRQKoQAplUq0Wq1QpZfvOBgMmJ+fp1AoYJrmruf2ej02NzdDjU/WoW3bYR1KjUwRRmnbtimXy1y/fp2f/vSnvPfee3Q6HTzPQ9f1UFt1XZft7W1arRa2mGJ0Oh02Nzfp9/vE43FSqVR43+EyrayscOvWrbBdDF/barXCMkU84MAFRSKRCDUDObc9fPgwhw8fZnFxkZmZGcbHx5mamgrn/b7vYwvjYaVSQVVV5ubmOHz4MFNTU3S7XcrlctjYnoS0Wci56/T0NEtLSxw5ciQcVSYnJ8MyxoUxTCI1nXK5TL1eD+fvUkjIc/r9Ppubm5RKpdBw5vs+g8GATqeDZQWRyocba6fTYXt7O+ywAOl0OrRRZLNZkskkpmmGRraPihxBNzY2KJfLoUAbDAa0Wi06nQ6JRCK0CzBkkJ6YmAjn7wsLCxw5coTDhw+Hjl/FYpHp6enQXjTMQBh0S6VSKKjlNGR44JDai7SDpFIp+v0+W1tbbGxshPWoqiqpVCrURlutVvgunudhWRa1Wg3LsjAMg7gwvA5jWRblcpmtra1QyEghLe/n+/5D133WOXBBYZpmuHJw/vx5Xn31VT7/+c/z+c9/ns997nO8/PLLnDt3jsnJSZLJZNi4ZGMul8t4nhc2zPHxcRqNBtvb2+F880nIuezs7Cxnz57llVde4XOf+1xYjtdee40LFy6wsLBAKpV6qEPKzt5qtcLR3vf9Xc/2fR9HrLTIqYs8LkfK4Tm8RHZQW0zBCoUCc3NzHDlyhJMnT3L69GkOHz5MLpdDUZQDabBySiFXAqTAkxqWZVnEYjFM0wwF5rDQP3bsGC+++CKvvfbarm956dIlTpw4QS6XC+0cw0hhIDvkcB3aYvXj/v37aJrG4uIi586d49y5cxw+fJixsbHwO8h6lPaURCKBIlZe5Ogv36fX64Xah2maD9WhI+wWrVYLy7J2CX5H2K6epo191jhQQYHopHGxBCdHm+Gf1CR6wjgoNQR/yF7hiWWzfD5PKpWi3W5Tq9WeerlKNig5Uk9NTT1UjrGxMYBwBBptHI5YERnWIobxheo8rEo/DZqmhfP6+fl55ubmmJmZCVdN5ArRXqPhh8X3fSzLCo2Qw8iOoet6aAhECApd10kmk+RyOSbFatPwT2pjchnXGbGZuK6LZVm7hKjEFtPJ27dv02w2icfjTExMsLCwwKFDh5ifnw9XSUbLZBgGiqLs2aml4NA07SHBxVBd7PXNIx7NgQsKKZmXl5f5q7/6K7797W/zB3/wB7t+3/72t/nDP/xD3n77bcrlcnit7BhSFbQsC1usSOy307iuy87ODt///vcfW4a/+Iu/YGNjg4Hwc5D4YvR7UmN60vFR5LLc8ePHuXDhAlNTU7hivn379m3efvttrly5sqtePg5G61e+V6vV4oMPPuBP/uRP9qzHf/fv/h1/+Id/yNWrV2m1WrvuwZAgGkWO7FtbW7z33nv8+Mc/5u233+b+/fuowv/j6NGjLC4uEovFUMRKmRTQe92TIUc8ufIxytN+14jdHLigkHNFOSdeXl7m3r17D/3kKojUEqSqK5dUG40GpVKJZrNJMplkbGyMuFjjfhK+sHm0Wi22trZYWVnh/v37e5ZhfX2dbre75zThWTSmVCoVzu17vR7VapWdnR22trbY3Nxke3ubSqXy1NrT0yJV8VE7guxUe3U+VyxpViqVcKVrr9/9+/ep1WpPZT8aZlhYyO+zurrKzs4Ovu+HNi65Q9gXg9DjBg9N0x4pJCI+PAcqKOSHlCqulP5S1ZMagpy/DzdMuUxXLBZRVZVSqcTa2hrlcplsNsvk5CSpVGrX84YZbhhySiBVXlmu4TIMz0dHO8izJDXkkXnnzh1u374ddo5Go4EtnKsOsqEPT8WGDbeapmEYBqZp4u1hV7GEY5ScUsiphPw5wjD5YetRCqmB8MQsl8tsbm5y//59Wq1WaEyVUw1f2CzkypdhGLumF6qq7rKz7CX8Iz4cBy4o+v1+OLokk0lSqVQo5ePCHXpmZoZDhw4xOTkZGqbkSkWhUMD3fba2tlheXmZnZ4dEIsH4+DiZTCZcvpMNU3YC2WgU4SreaDTodruhI5dsQNLQOTU1xcLCAktLSw8tjz5LdF0nHo9jmmZop5ErArquhytGjxOK+0XTNHK5HNPCR0Auu8ZiMbLZLNlsNrQlyDm+53m0222azWYoxBOJRDj3TyaTjI+PMz8/HzrEjS6PPg7DMEKflenpaZLJJL7wRJUGV8MwwmciBFW73abRaIDYdh8XXrbyfaRzmBwcPowAi3iYAxcUUpXs9Xpks1kmJiYoFAoUCoVwJePYsWOcOHEiXAozhbv12NgYyWSSwWDAzs4Om5ublMtlXNclkUiQzWbJZDKoYk+EbEyTwg1XCgTLsiiVSjQaDTKZDJPC7Vj6bsil12PHjnH48OGPVVBIzQYIHZrGx8dDo+vi4iJzc3NP5QTztGiaRnbInb1YLJLP5ykK12XpbyJXAhCCQi5XM1RWKcynxZKz/JbSOeppMQyDiYkJTp8+zfHjx1lYWGBiYiL0BB32r5GageM44cqYoihMTEyEXpryfaQzVr/ff+pVsogn80wExebmZmhbWFhY4Ny5c7zwwgucOXOGQ4cOkc/nQzUW4UcwMzNDIpGg1+uFjVaOaNVqFdu2wymIYRh0u13a7TbxeJyzZ89y4cIFjh8/Tj6fDwVFtVpF0zSmp6c5deoUL7zwAhcuXODYsWNMTEyg6/qey5/7bVz7Ob/b7VKtVul0OkxNTXHixAnOnTvH2bNnOXLkCOl0Gh5hBPywo6Pv+7iui6qqFItFzpw5w/nz5zl+/DgTExP4vh86l0nbiOd5Yae0LItcLseRI0e4cOECFy5c4OTJk8zNzYU+D9aIS/eTkCO+bduMjY1x6NAhzp49y8WLFzl9+jRjY2O0Wi22t7exxDTWFUvopVIJy7IYHx/n+PHjnD9/ngsXLnDq1ClmZmZC4/DOzk6oIT0tH6Z+PwscuKDodruUSiVqtRoA09PTXLx4kUuXLnHq1CmKxSKO43Dv3j3W19fp9Xqk02mmp6fxPI+trS2q1WqoNvaFG3ilUgk9Lg3D2DWySCFw8uRJCoUCtlijl85FuVyOEydOcOnSJV588cUw2M3Ozg7Xr18PvUcRo1ZP7B14VMOXI91eS4KS4XOGl0+bzSZra2tsb2+Ty+U4evRo6D+wsLCAZVlsbW3tclKS2MJNeq/lxschO1i1WiUej3Pq1CkuXrzI0aNHSafTNJtNbt++zcbGRuhN6gvv1LJwWzcMg6WlpfBbHj9+nEwmQ1vs3t3a2gqFjPxuo+UfxhYemLdu3WIwGDA1NcXZs2d5+eWXOX36NIlEgu3tbe7fvx/aJFzXDW0ZnU6HWCzGkSNHuHjxIhcvXuTEiRNkMhkajQbLy8usr6+Hz/c8b9f3eBTWI5aRP+s8s23m2WyWcbEVW04XXGFFbzabbG9v0+128X2ftNgNaFlWqEnIziDnw9Jj0XEc1tfXw/monFIoikKz2WR1dZXt7e1wFUWqpmmxcxWxm7PZbFKpVKhUKqFQUlWVfD7PoUOH6HQ6rK6u0tljB6Gc72cyGW7evEl7aDuzJJlMMj8/TzabZWNjg62tLTzhCCR9E6ampkLjouxc9Xo9fIaiKNy+fZtarYbneUwLP5Rer8fdu3cf2QklsViMV199lZdffpnt7W0++OADfLFBShXbzNvtdih0h52bJKZphm7Tcmoor+10OtTr9dDlXGpBuq5z4sQJNE0LR/ZRpF1K7unI5XK7HPDkqpfUvobr1zAMcrlc2L7k8qktNnlVq1Xq9TqdTieso3Q6zeLiIul0muXlZUql0kPvCnD48OFdwubTirnPbebPRFAwZFEfNjL6YhVEztPlx9c0LXTldoYs6cP30kXEbdmhVFXFMIzQAYchJyk5GshzZBmGreFS7R0e7RHGxoTYKTls3BtmeKnxUVqFNN5qYku9LJMi1vl1XScWi6GqwVLecN0gnoHYmyBHQNM0wxWKXq/3RK1CCopLly6xsrLCT37yE5rNZnhvWd+yLvbqOMqQk5M+tDNz+NrRaYciNmYpwnvyUSO4oijht5ffVxGrPfK+tlglG71u+BtIQSvrUNqv3JEt8/J7yKnSXsTjcfSRUAefRj4xgiLiF8+woLh//z4/+MEPQuNkxGeb/QqKA7VRREREfDqJBEVERMQT2ffUo1KpcP36dd59993RQxGfMAzD4MSJExw5coSdnR2uXbsWbm2P+Gyj6zrHjh3jhRdeYFyEfXwc+xYU3W6XSqXCtghgG/HJRRXBgrPZLD2xr+RRhsWIzxaqCEwkwz08iX0LioGIjBSNTBERzy+KCEwkvZmfxL4FRb1e5/79+9y8eXP0UERExHOCrussLCxw4sSJMDbL49i3oKhUKty6dYsPPvhg9FBERMRzgi6CG589e5aCCEL9OD6UoLh58ybvv//+6KGIiIjnBCkozp8//1SCIloejYiIeCKRoIiIiHgikaCIiIh4Is+toFBEuDi5iSji+URu1Iv4ZPPcfqXhXYcRzx9ym3ksFou+4XPAcysoZEyHTCbzmdEqZMzRT8M7ayL3q4wPqn1MoQgjPhzPraAYGxsLk+U8753maRkbGwtT+T3vKruu6+RERrmxsbEwpkjEJ5PntrXJLGBjY2PPfad5GpShBNDFYvG5H4F1XSedTjM1NUUmk3nu3+fTznPfwz4r2sSnlc+CkP808Mw8M2MimWwikQhjGsrwcqOBaWMiOY08bonkMoiGZIjM1LFYjHg8jmEYzM/PkxM5TJeXl8PwcDKCN2KbdSKRICmyg8tQejKAqgyiK1FEnM18Po/neXS7XXQRGk8RMRmbzSaKopBKpUgkErTbbdSh3CIyVJzjOHS7XTqdDgORw1Q+Q4ZlS6VSD4WYc0U6xW63GwZ59URWrKNHj3Lo0CHa7TZvv/32I8O5DaOLkHvpdDqMd+mLQLWDwWBXIGFZT47j0Gg09gyNJ0mKnC2I/T+KohCPx3f93RNJhWR8TVkPUpNYWFhgdnaW9fX1MJiwDLory2QYBslkMmxHqshqJr/haPBigGw2G0Yz73a7YdvRNA1HJE62bRtVJAySbQqRbX4418qnlf16Zmrf+ta3vjX6x8fREynm9gqYylA8w7RIMixzVmSzWRKJBKZIxCNjNCoivuL4+HgY01DGPUR09mw2S07ke5ABdQuFAslkEkNkupLJgWTjkZ1x+PxcLkc6nQ6FhmxwElUkujly5EiYV0NOcbLZLIZh0O/3icfjTE9PMz8/jyJ24cnn5HK5Xc/xRXpD2egMEVA2l8tRLBbJ5XKMjY2F/y/ryTCMXXEpFUUJ729ZFpubmw/FkhxF1q3cTjw5OUk+nyeTyYTBhodVfvkOpmnSbrf3FBTy++bz+XCLcrPZDAWsTGY8NjZGOp0On6OK4Mqu6zI2Nsbs7CwTExOhEJaCMxaL0Ww2cRwHVVXD8g9/Q3me7PjDsTEBpqammJ2dJZfLgXiv4SDLss3I7yDbaKFQCAWGjNn5aUVuM5+amiKRSIwefogD1/s0ka07mUyGEaaHg9jKETqVSoWCwff9sFHLhqCJQKuGyCiVz+cxTTMccWUDGdZCpPBRRWBbORLpuh4KH1fkt4jFYuHop+s6igh6G4vFKBQKYbKbeDwejsCeiDJtiCjQU1NTTExMhHNs2bg8z8M0TfL5PBMTE6RSKRQxRYrFYuRyOQqFAolEIhwhZdmkkJUJd6Q29mGQQkxGuTYMA08E8FWE9iQ7itQ8MpnMLmE1+mxZt+l0OvyGAJlMJhSomqaF9TUsrHK5HLqu7/qGUhhaQ6kKPc8LBb38hvKeo99YanbDAk8OPBMTE2G7kW0skUhQLBbDrGlSUMlnjo2NMS6y0kU84EA1iuHGl0gkcByHWq0WJpdpNpvYth02SobyW1qWRTqdZmxsDNd16XQ6+CKU/9LSErFYjGq1yurqKmtra+gianOlUuHy5cuh+trpdEKLelokPG42m2xubrK5uUmlUsGyLBRFCacyMtq27FgzMzOhCl6r1VhfX2d7e5tWq0W32yUh0gAURPrDZrMZJkPe2NigXq/jum6oJcj4HZ7nMTY2Fo64Mm3BxsYGGxsbYWIbQ6RXTCaT1Gq1MNfGfjUKTSQ/WlhYwPM81tfXw3wXsp4ymQzJZJJSqYQxlMLPEtM/2ZklMZEmQS7RdjodKpUKMzMzTE5O4rrurmTD8jmFQgFN06jX62EofanB3b17lxs3boRh9Hu9HjGR7jAtphC1Wi1M4lyv17EsKxTsqqru0gCKxSKFQiH8tjIJdKPRQBGaWT6fx/d96vV6eN9OpxM+07Ksjz2j/MfJL1SjGBYUpsit2Wq16Pf79Pt9Op0OzWaTTqcTqqWGYeCKZDlybii1CKkqI+aanU6HbrcbznU9MQe2bXuXRmEYBplMhoTIPNZsNul2u/RFUhr535qmUSwWicfju0ZOXyTDbTQaYQ5Tea3sOL6wdZTLZcrlMo1GI5zvt1otms0mlmWhibyYkm63G+ZV3d7eDssyGAzoipwUjUYD13XDTvBRGH4vqU0MBgNarRY7OzusrKywtrYWTtk6nQ6e51EQU7vhsiuKEmpKcZG2r9VqhUKWoWxmjkik1Gg0wkQ+m5ubDET+D1dog4gERVLrlJqnFBSJRIJOp0O73Q7rt9vt0mq16HQ6JBIJMplMOPBIPGFjKpVK1Ot1Wq1W+D2lAKzValSr1TCXTGUoi/zwe0ccsKBAhAHPihyhUnUcGxsL56wJYZQaGxsLjXmyYbXb7dA4KAWFHEHlaD7cUSWj/61pGmkRvUdqDZlMhpwIC5cQRlapwUi7yfD9BiLDdkcYvlzX3TW6+sL2IJPNDAsRqSU5exjD+v1+qJG1Wi0ckZw4Ho/vUqGlgFGFkfPDMFwWhEouNQhVVXdph7bIQtYWCYKz2Ww4LZOowviXTqfRdZ3+UH5PS0wbpFYmBbWqqmGHrVQq2ML2NPr9Rv9mGEZ4n5gwjGdFflp5bzlVkgPOMK7rhoK30+lgWRbdbjdsQ7ZtU6/XaTQaoUYrv7UvpikRDzhQQaEIm0JazIuXlpY4fvw4p06d4tSpU5w8eZJjx46xuLhIXmSdlh1DTjdkiD1pGMuKeI/ygw43pkehDhnBZFLkkydPhuU4ceIES0tLoVegtFEMY4uVBzkC7oUsc28oSQ9DuT73us4VNpXBYIAyNH+XBri5uTkmJibCzvxR8H2fTqcTZhorFossLi6G755IJPDEapHneQwGg7CzJJNJkskkMWE0lEJCdlCE0OuJRETtdptWq4WqqszNzbG4uBgmHk4mk9i2/di6HMUQRl9Z5uPHj4ffULajpaUlxsfHHxJoDAlyKSSkBjOsiUoNRf5N/j/RsvtDfLSWuAea2IORyWQoFotMTU0xPT0d/qampsLphCMMkhKpVnqeF44g8Xg8HOnkHPRJqGJJVRq1RssgDVmGWMUY1hQkUh3eSytANERvKCvV6PWPQqrvyWSS/NCKjLS8SwPcqCr9YZAduFQq0R2yrUxNTTEzMxMaYk3TRBHLv/1+PxRiciQ3xSqRFB4I29JgKAtYq9WiWq3S7/dDw6as92KxuOs5T4P8hmlh2JWrKaPfUBXG8uF2xND3Ge788u+SRwnziIc5cEGB+BjVapWbN2/y3nvv7fq9++67vPfee1y+fJnl5WXa7fZD13qeF0r94f/fD7KT3Llz56EyDJfj6tWr4bx1lKft/PvBFLk8Z2ZmWFpaCpfwWq0W5XKZ1dVVNjc36eyR83S/+GIKVa/XWV9f586dOywvL4fZwsbGxpicnKRYLIYrHI7w/6jX62iaRlbkfJVTjmQySU/YnoYFd7/fD43Nt27dYmVlhVqthqIo5PP50N1+dIrwODzPo9FohH47o99Qfsc7d+7QaDRGL484QA5cUPjC3tASKetXV1dZXl4OfysrK6ysrIQZygeDQXitLvJJIhpeu92m3+9jCIer/RiY5Bx1a2vroTLIcqyuroYZvPcriD4s0j6Tz+fRNC1Uj+v1OhWRgb1Wq4V2hY+KVLErlUq48iPtIwhhITPEK2KZsCdC+yvCbVz6LUj7RqfTodVq7ZpuSQFTqVRYWVkJV5i63W5oc8rn808tKGQ76nQ6bG9vs7a2xsrKyp7fsFwu0+v1Rm8RcYAcuKCQKrtUB6XhaK+fO+QoI+frGZH5vCmyjTebTZLCIPq06rhUOW2xCjJcptHffqYNB0EikQgNqBsbG6yvr7OzsxNa5gdiqfYgy+QJ+0Or1aJer1OtVtne3qbdbmOaZjjSS0HR7XZDu0YqlQp9FdLCiWwvQYH49n2xEiIFn1zZke/9tIJi+Bs+qR193N/ws8iBCgp/yIDkui6maYZLfIrw6JMNRjq1yIajiW3HmUwGX6xvl0olms3mrqWy0dUJeV9tKBO21CYsywrn2dJgqYq190wmE9oIYh/BqWm/aJpGTMRgkEuS0k6iququ1ZqPiiKWqwvC/yIWi4VCoytcn7WhLN+IDiq/oSV8FeSKkSl8S3q9XijQJNLmMjY2hi4c3ORzBoMBhog9Ib+fL1aqfN9HVdWHVnhsYUy2LIv4kAu2MuQCn81mKRQKoeCNeHYcuKDo9/uhQ4zUEBLCUzOTyVAoFJienmZ2djbspPLDS08/x3HCka/VauGLdfWk8PZUxJ4IT3jTySUyKRAcxwn9E6RRVI6KskFPTk4yMzPD9PT0QwLoWSI1HIR7eCqVIik8RLPZLMVikfHxcRJP4QTzJBRFIZvNMjs7G9b38PeQnWt0RJbCQnbUpFiZAUKj8uhUTdpdZmZmKBQKoT0jKVZOfLESNPwcqSVIw3M6nSYuvHmlBtTr9cK2I++XTqd3rRQVi8UDqa+IR3OgvUMKilqtRk94142Pj4cNVVrah30X5AgrRzypvnbFmndHOFl5YtNSVrgIS6u7ruuh4JENRgqKdruNIbwcp6enmZubY25uLvTPGBUQshEPj3ZP4mnOGUau11uWxZiIqSEF1sTEROgToIrNWx8VVSxrZjIZJiYmmJmZYW5ujunpaVKpVFhXo8LCFUu/nU4HQziwyXP3EhTyOdlsNuzAMzMzTE1NkU6nQ5uTI4zGnthn0+l0iMfjTE5OMjs7y9TUFPF4HFtswOt0OuH0SH7n2dnZ8BtKwbKXRvi4bzj8rZ/m7591DlRQIIyQtVotbGAzMzOcO3eOixcvcvLkSaZE0JXt7W1KpRKDwYBUKsXU1BS6rlOv13c13MFgELpmJ5NJisUiuq7T7XZpt9vEYjFOnTrF+fPnOXHiBPl8PmzQTeE2XSgUOH78OC+88AIXLlxgcXGReDxOs9kMV17kKP+0DeRxjZARYTN8XrfbpVwu02w2GR8f59ixY5w7d44zZ86wuLgIEGpD8j6Pu9/j8H0/9Iy0LIvJyUlOnTrFiy++yJkzZxgfH6fT6bC2tkZ/xEfF931awsPU931M4Wlbr9d3GaAljUaDarWK53nMz89z5swZLly4wOnTpykWi9Trdba3t8NrHeFgV6lUSKfTYT2cPHlyl1BqtVooisLExASnTp3ihRde4PTp08zOzmKaZmgHGV49e1IdDdfpXjzq759lDnSvh0RWtCuci7rdLs1mk1qttuvX7/dxhfuvbJht4ao73HF9YQEfiG3RrVYrNHbJ+8upSrVaDR2IGFKj5XWyQUuPypZwQZbIaU2tVnvksqk8p9PpUC6XsSzrocYlR7iO2AvR7XbDd5Flsm2bttgHMlz+lnBPrtVq4ZZrxKhtWVboijz6zL3whcov66ojnNpqtRqlUolSqUSj0WAwGDx0P034xGSzWXRdZ2dnh4rYKzOKnFLJ58i6ls+RKy3Dz/GFTWsg8tnK8+VqmJyqSO2jK1y3h+uqJvbCDH9DTdMYiGXh0XqSba3ZbFLdI2mzpmmhQBxduv80oe5zr8czi0ehaRqGiLUgDYmy0boiRoH8uPLc4UY9XCxNuDNrYqfpYDBAVVV0XQ+foQgfgH6/H358VTjtGIYRGsJkJ3eH9ogMowt3as/z6IuYCKPIZVxN0x5qpBJV7G6UjVY+RxEG1eF7SOS7I56hKAq9Ia9P0zTDeuoJj8gnIZ83Wg+MrFCNCkRlyBC6sLBAPB7n7t27bGxsPNS55PnyO8qp0/BzLLEXZ7RDD5eLoT0asjzD7UgTBk8pPBxh4xhtL7KePLHUO4wm7GGybke/XTweD+1cUkB/GtH3GY/imQmKiOcbXdfDVYWC2CW7srJCqVTaU3hGPF/sV1AcuI0i4vlHEwZmuQHLdd1HTk8iPhtEgiJiF6ZpMjExwZkzZ1hYWCCRSNAVHpdPO92J+PSx76lHo9FgdXWVu3fvjh6K+BQgl7SXlpZQFIWu2CJerVYZ7GP3Z8QnG03TmJub48iRI2Sz2dHDD7FvQdHv90MrfcSnD13XSYqQhEC4UiJXkvbZXCI+oajCC/hpdyrvW1A4IuSYXA+PiIh4PjHEZkv9KVI67ltQdDodSqUSm5ubo4ciIiKeE6QfxezsLCmRXuFx7FtQtFot1tbWuH///uihiIiI5wRNBF4+fPgwmaeIOL5vQdFsNllbW4uMmRERzzGapjEzM/PUxsxoeTQiIuKJRIIi4hOFdPuO+GTx3AoKVWxRH94rEfH8IveKyD0uEZ8snltBITdvGU8ZWu3TgBSO6scUZOfjRB1KB3DQwv/TXG8fF89tzckoR2NjY5+ZESgtsoAXi8VPXaM3TZOcyOcqg9EcBKqqMj4+zvT0NBmRBjFi/xzM1/gFIEPcJZPJz8zHl9u+s9nsgXWkTwqGyOGRE8mUD/KbGiJe59M4FkXszTNvbYqIATH824tH/X0Yeb2Mr2CaZhhSbzj+wSijz39cORg6f/jfo9eM/l0R5Rr+Pe4ZjNxj+Jq9rlNEEOFYLIb5IQPJ7vWsp2H0mkeVkaFz93q3Rz1XGYplITu0nCqMnivPH733o8okY3e02+2Hdr8O32f0fo8q616M3uNx14ye87TX/aJ5Zn4Uivj4wx9cBhyRgWPko1Uxh0QELhndUyDvNfwB5+bmyOVy9Ho9lpeXw/sOB0dRxIeX5ZBl8IcC6IxuclLFXNkXUbXk9YoIZT8cUEXTNBzHCZ8z3LDk9TKoymg1qyJ4zWgjHy7fcEAWRVGYnZ1lenqaXq/HzZs3Hwo28ziGv4UqtBH5jNH6lgzXnbxGlk/WxXD9KUKYGYYRlm20XhgKmCOfa4ik1NPT0+RyOe7evUtTZL6XQW98EXF9+B32qjdHZJ8bfh8ZSEe+ryyXFLjyHeR33usbjrYT9tnGJTJIj2znso4Z+R7PGm2ffhTPRFAoIjqSjI6dSqVQRMq6Xq9HRyS8sW0bReTzyOVyOCIUfK/XCyNCqSJSlIxULSN1p1IpTBE+XoaZ64hkMdVqFUYSJicSCYyh6FAyBF1nKCOXIhLeTE9P47ouzWYTUwSmVVWVfr9PuVxGVdUwVkOtVkPTNBKJRBjRSr5ro9GgLhIYD0e4MkTUaRkcVjYeRUTfkmH7WiITvCvCBX5YQaGJSOVjIjG0aZq4IqVBo9EIO+VwU1CGkg3L6NiygQ+HupOBjxHRocbHx5mcnKRWq+G6LvGh5MuqiE7VarWo1Wq0221s22ZmZobJyckw6LL8u6xDGVXLEEF+MyIBttQ8/KGQevV6nc5QvlFNeCDG43EajQYVkSUtnU4zNzeHoih0Oh183yebzYZCRRER06oiu/xw1C1ZP0/bxmW9qqoa5tPti7ytqVSKdDqN67phvQy3yWfFfgXFgU89pKSWKrKqqqFU9n0fTcRhTIiclrLxILY4y0Yppbqu62HjMER4MznSSKlsiUzacpRSRH7P+FA+CDkCyk5niA0xsaFcE/LvWZE1W0bE9oeSDvu+j67rpFIp8vn8rmjezlDSIdk5ZXRx+T6mSM2XFbk7pHCwRUg3VVVJiNwnMpfGR0EXuVRkx5KjpCJyi2YymTCy+V7XmCJfqHw313XD4zIFgnw3KTALIo9ISiQPHq57hpIgpdPpXSO9HIFtEaLQsqywc8ZFHg/5TRjRTHSx6zWfz4fPRXxTGe5/+DtIoZPP58mKnDGITY+OGNVl25PfSvJh2rgsSzweZ2xsLBTamqbtasv7HLc/NvYdXHcwGITBWffCFAl44/E4iPPb7TZdkQhGNlLZMGUlIQRFTITst0TymXg8TqFQwDTNcCSTYfg1EbNyc3NzV2BeRGOUo6AjtA55XH5QVaj/smGoIgu6zMXpiECxsvw9kf3aFBb6bDYbllUGrR2eCydE5m85esi/ZUSOiuFyyWcMl8MwjHB0BMLRy3EcKpVKWG+PQo56aZHhyxXaSkdkLJffQdM0Op1O+GwpQEwxBZMaWFckKxquO0TAZV/kXpHJnWQn7oisYrLubdsOO5nneTSbTVzXRR2K6ym1Qqnx2bYdChfDMLBFzpGmiFYu42QYIgO6MxQ7VVVVisUisViMrgjOK+tlcnISU2ilsl3LwMbynkmRVV5+Qz5CG1fFRiwpmC3LCrXHntCk5XOfNapI7PS028wPVKOQI7JsmJZl0RSpAcvlchhh2hJJZRJCJZUNyhaZq2Iiu5f8SQ2j2+1SrVYplUphROeuCKxSKpXCUPKayDoWF8mEpEonyyHDuhmGETY+OdLI92DIEFav16nVajRFTgsp9aWm0ev1QrV2OLK1FAxyVJb4vo9lWbsiSpfLZUqlUhixW9d10uk0+kd0QDJNMxy5uiJV4PC3GG2YitDGMpkMuq4zGAx2vVulUqEhopPHRFImOWIO44kpSrPZDN9NRvEeDAbEYrGwo0khK4V4o9GgXC5TqVRotVo4Qqtwh1IWyu9ZKpUol8vU63X6/X7YgYc1pMchNSzZtsrlcljearUaDlZSi/kwbVwKVIn8nq6I5C4jiss+8Enk4S/8EZCNTDZwqT76Q4amfr/PYDAgIbJVSdXeGbJPaJpGLpcL0w56IpqylNZPQtO0sMFIqS21CF8kKbIsC01k6zbEvFQiz2k0GuHHc0eMU75QkWVY/95QRGf5TKkJDCMF2+bmJjWRKGm4bFJzkaPsRxES8nskxPRgIKKBu8I+UalU2NraYmtrK/xOwxoFQluQwkS+s9RyNKFij5bRF+Hwpb1Avp/skKPC6UnI+21ubrK9vR0KBVkm2Xa6IheKso8VhIGwa8hBxhOGyIEI2CPLLvmwbXwYObhIjUi2Ldl+PokcqKBgaH4rs2DNz8+ztLTE0tISi4uLzM/PMzU1Fc77ZAf1xegtDTnpdDqcx8mPtlfH24vhxj45Ocn8/DyLi4thGRYWFpieniafz4dz92HkB5cda7ihDJ8jP3hf5A4dPiYb8SjeUE4PRcxZsyLa9fj4OBMTE0/MgLUfdLEKoapq2Alk+WxhC7CHDG7K0DKsMpTaQCKFhRRko3UnzxkMBg/Vizwm62Y/7+YOrWhJe4QcTORPaod7aTiPQn7nwcjS6eO+4Ydt4xJfaJR71c8nlaev0adEFXPNtAizVSwWmZiYCH/FYpFcLocqjJjyQwxXnu/7xMVKRywWYzCUVPdpkI09KYxbo2WYmJgI52buHkukDGXTfpyUH+40ezWoRyHrSFq8M2JFIpfLhcY18yMaMRkaWXWxDLtXGYe/AeIaKQAUsdw3iqwvee5eOI9YVtzrfk+DfJa0D0gjo6y3XC5HRqxOyfOfhsd950eV9cO2cYk/tPw9Wj+fVPb+yh8B2TilitoUqf3kTy4Z7uzsUBfJjCXyo3li5UITS4aPanSPQ46Ge5WhKYyx5XKZnZ2dUI0dxhcjypPYqyE8Dk0koMlkMuHUShoNXaHyDkYyhX8U5Pd42o4jeZrzH3fv/dbLkxjWIvL5PMlkEl2sqNhiaXS/UxrJfsv6Udq45Gnb1yeFAxcUssG3Wi02NzdZXl7e87eysrIrXR7iA2hiXdwRsTmlir5fNdwTdo2tra2Hnj1cho2NDXpDKQifNXIkkiOgruthg5PCqybSLR4EshPspyPIRryfa54liljKlcuKSeG23x8xbNZqtYdsCs+Cj9LGn1eeiaBwxJq7nAP3+/3wJyX/QBgmhz+qKXwfVLEc1W636ff7oXV91Cj0qAYhyyDLMVqG4XJYe2TmfpbIVQjTNEODX1Msqw4vrz3q3faD7PDDWtqTkNfYQz4po9epe3ihflQedw9laJkX4fQn663T6dAXxumD0sKexEdp488rBy4oXOFX4Amno2Fjl9QYpEAYNjypwtEomUwC0BZJazsi7X06nd613jtc+aPahmzojuPsMuZJtKF9BXsZm54l8rm6rtMQyYY7Yt1eGurMkZykHwVpBPSG3IWlhjZcB8Od3hEGPl84Dw3Xj7xOlu8gO8HwvYa/pzLkQOcJ34umWDGQxmb5LqNt4VnwYdv488yBvoEvDJKdTgfXdcNGKBubHE1lFmXpeSgrNy7cfT3PC30MOp1OeEx2MPksXyznmaYZGuwYWn4aiPV6uZYtn5NIJMjlckxMTBz4tuanQXZUWWb537FYLDTMSR+Dj4pt2/SFDcYQyX5V4RuQy+WYnJxkYmIi/A6e8HRti0zest5lOaWtIBaLhULlIPGF56su3LNlp1eEZiM7pvxemlgKl7aL4U77LPiwbfx550B7h6zEdruNZVmYwnEnn8+HPzk3l51edhipjst7yGVHqcohPDcTQ+7SjuOgaRr5fD6MTRETKxlSJdWF41IulwsT7soyJIb2IHxcyNHacRxSqVTYwPP5fDj/Nofcfj8Kvlim7Aivy+EOlc/nwzowhhzO5DWtVgvP88LlW1nHw7aVgViNOoipm9QCbdsOV6vy+Txp4eZtiVwyitiDIssjV4mGB4NnyYdp48+6TB8HH701jiANc/1+H0VsspqcnGR6eppisUg6nUYRG3Gks4mcWijC+7IvNkJJFU+6RUuBoqoqg8GAXq+HoijhRqTx8XESiUSoUchGnEwmw+AlUsobhsFAeB1K9dV/ws4/yfB5j+ok8hxpH5DI9+n1eiTEvgg5qudEdi4pIEfnt/J+TzsXHx79HMcJnzc1NUU+n8cUnoXS+1GWebgj6Loe+gvIb5hKpXCFMa/ZbIbv5wsjn5zqPKr+9qo7RzhjdbtdUqkUxWKRyclJcrkcmqbRFxnqpIAdHx8Pg/jIby59bUa/nfyew+X0h3aaPuobMnTt8P3228aHtS73OVsWlRy4oHCFm21f+NojNIFhxybZQWUDVoVxTDZqqSrL+7XEXgF5riIs3tLYqQsHITkflKOi1EY8scFHqomKooSdYVRQ2LYdduRHfUzZqNvt9kONSOIKYSU7nDxHPldeK+ezUovoC4/Qer1OW+yilGWzLCv03NzrmXthi30Rw/UQFy7O8l1lB5TIsstvKKd+cbFJzBfOcfK7yLLIb994TOZz+R4dkaZQnuM4Dp1OJ3R9H/6miqLs8mT0h2wShtgo2BG7Netit658H1942UohIp9n2zYtsa/DfYTg9TwvFF6yLfMh2rg8xx/S8Ibb+PPAM9lmjjB66WKuKTu3L0Ysb2gHKEPGxeGRZrhYyojTkD20oUk+gyEjk2wkqjDeyWulOi+f44jpyzCa2GviDo2Mo8jySs1mr4amCAOc7JDDDU2WS95D1o0/NOeX79QX2hXCEKoL34HBPlM6ynqSUy1/yOnHeYRlfrh+Zd3JbyivHX53dSigUH8PjUiy13soQ3ab4W/tiGVyb8hw+KjyyHs7QztdEZ1YHdrdy5A/iyc0qL2+IWJzIUKwjLaV0fI+ro1LZJuQbfUXhbbPbebPTFBIlJFAIJLRx+51zijyQ4z+bfja0ePynOH/l+fsdS57nLcXB3HOcLkedc7o3590z8ex1/OedJ/RuuMJ9Se/x14CdphHvceTyjhantHrJXtdM3ruo/4+zNOes9d5j7pm+N1+UexXUBz41GMUf0jC+o9x/nnU34fZ6/jo/fdC3nu0HI/iScc5oHOGyyX/Pfob5VF/fxr2et6TGL7maepPnvskHnWPJ5VxtDzyv0d/e10zyqP+PszTnrNXeR7F4459UnnmgiIiIuL550NNPdbX17l3797ooYiIiOcEOfV4ZkmKB0+IcBUREfHJR1XV0B8l9hQRrvYtKBwRmKMnwoJFREQ8fyhiVU7uwn0S+xYU0g+g1WqNHoqIiHhOUEVcVhnm4EnsW1B0RQi1Uqk0eigiIuI5QVVV8vk8k5OToa/I4/jQgmJnZ2f0UERExHOCFBRTU1NPJSii5dGIiIgnEgmKiIiIJxIJioiIiCcSCYqIiIgn8lwLiuHNOBERn3WeZV94bgWF3OKrHVBsyYiI55nhLe/PgudWUMTjcdLp9FMt7XxaiMViYUbvZzl6RDx/yChxqVTqmbSN51ZQxEQI/7hIYPxZICbSJMq8FhEREumOnRB5Zg+a51ZQyAhRz0rV+iSii1D+w8FwIyIQUw/ZH55F23imgkIR4c2Gfx/lJfa6nyrCyj3u/ntdt9d5EnkOe1wrkX/f65yneQaPue5prv0wjD7vaZ8xet3jrpXnyuOj146e9zT3HD4+et2jrtmL0Wsfd/2T3uNx1w6z3+vk+cP/Hv2NXv+0530UnpkLt2EYYUBWOQLKOJQygrbruiiKgmEYJJPJ8PhwrEFFxMs0TZNYLIYpcngkEglM08R1Xboi3f1AhJmX/y3jIsoyaCJdoSVS1fdFhqlhpB3AFwFkdRHkVVVVbBGMVhGZq2KxGN1uF00EyB2O5eiKALW9Xi+M+SiR2pDcuTd8nScibfeHInHLa2VKAsuy2Nraeige46NQREo+WWZZDzIAcX8oLucwpkhiI4PGyobniJQD8t1kE9JFlPRMJhNGQJeBg2W990VQWVlnMtixfGcZtdoTWcpkugDZNmRbUP//7V1tc5tKDxVgHGz80iad9O/29zbpdRLXNhgDzxednWNlMdgluZ3n7pnxtLGBlbRaSbsrVlqd/ajH+JdleXYuKeNOD1VmPlqq9Wr5QN8wHzgLNFJj1eqhvXstQuQ7T5MPJIbMK6osxm2KrruhXMNut5M0TV2UAP2otE4LDhBO09SVB5hOp9LogcCQNw5ytoivTOFOfvz48cN+eQlVVcnhcJDdbmd/EqGBjc5hRlnIODZMaEBPdBcDg0WoxDwPdigZhA+lguJUenI0jBUPYmtpcYQZaM+yzB1lD9pg6NDRE60VggM/MNjRBmhMtIBNrUe+43k8aMEzaOO/MYBAH+RQ1/XZ6deXEGtImmkhH5Yhy6Km08QjNd72HvCG+1o98g28pVThu9XiTAkdiIt2MQCgG/wbeG7bViI1yPf395LqQcQTqvwWkdcHLWyQI32VmnWRZY32uvi4v7+XVqulMY38iekQYAA8su6hLQaPAVFDsVqtJM9zaU0hJJ9u1HUtsVbYgy5BfhGNB+sMRWUz0zKNqSnV6cPohiLRgYDB1TSNFHpsPnsKCA3CirXKUqqnccM7pGnqrCU8WVmWTmDH41FeX1+dZ8SpzvBkiRoeeJ6KTtYGHUzDnUYUaZpKrSdNl1qjFN4gTVPJ89x1KJ4PGkA7lARREr7L81yyLJNWDQ97RJZFkiRObnKjoYDCpmnq2oMni/Qkc7SDvpnokf7oQ6aRB3FMXg5t5XnuIoBaT5pGe4k6BCgmooiaIsupnuCN77Isk/V6fTYIWM6gAwOR6WPefXyImWb6+IAjqdSTo91GSx9ArkVRuL5LtZQAdA/tWt0T46iyLJM8z52Hh/x4/EQaHU60ABOeiX6squpsPBw7ThiPrjQUo69RTDSamEwmcqJaDa+vr/L29iYHrZcBKx/rMeoIpWCNYTTwfxgFFKhFyFcUhWw2G9lsNrLdbqWqqndGBzUoXl5ezmotJFqODkoI4P8R1f9ATQkMZsZR61S8vLzIZrNxbYh2PhRVVDEj9WKl1ngAT+Ch1GJHM61kxrRdg4gGfZIkctRiPyjwW+g0ADThnjRNXduVFrtBH4K3RsPx7MKuE/c/+gYGHP2CGiYHLebk6w9RuYnKervdumcetDbIdDqVmVaRkwF8oMBxXdduYNs2YXBqnd6+vr6e6RrundJ5DtC9qU63Cq24bnUPTunSIIXuoV3oPevt6XRy9UngDK0ujYFRDYVVzBPVUWg1tIOHuaP1BlHLit9iPVRjsVhIprUXYD191tEi1vlhmqZSqQeF1YZXPWkxoZmnFB2u2WvhnFrDcts2PDuMFtoA3/Z6MUcJ/tYKaEwbPJ4dwLdionN6odoUkOd2u3WKDw+LPoRXO2ok1VJ4jr6INRy2wADh+Tu8YqMedq+FjBqdZnbJS0gukHWlXpRpgWGAvEBbpjVcLR+gCXrQxcd+v5cdFZEW7Xe02xqnkdDay0lrpljdg45bJ8LXYK3Np1foq8/EqIZCSFAIa1arlazXa1d8F3MwKyQYClhAhGFZlrlOrToWqyygNHjGcrl8RwOStRCt2AFZ6+LZqaOITUtTDqvkGFC++zBQoACIwGazmQs7eb5p6boWic6v4RmhdEwHK3yk0xF4uoZCY1HeoPy41tIIZceAFjMfR9uQLdpo1YNbtLQQao0+02INPnRRtD99fNQ6xUk8Gb7go6SpCv/m69+Y1oSs7q3X6zPdw/TEolFDzrwK6dy/gdENBQSFgrjfvn1zn4eHB7dyn9KCFIBOadvWDZ7pdNrZWV2A0mRasRtt49+Hhwf58uWLC1V9ytkMqPPJ1/iUpgsYEPA8WGGHUV0ulxdD0qGIaNvMx6N0KHxsFvos8F2khsz3bB78Qvf4fhuCrv5gAwM+8eFIwdcWvrskIxgYe7/9G4DRyXRt5f7+/t0Y+Pr1q8znc4lpmsRo1UBdq1cfidENBToJzGI6wZ9C64ZiXQJoyROzkjcaZg4VGgTfqteAdbY07Pd7N3f2Pdv3nUXrGWiXENHcGZ4FkVWrHuMaXoegazD7gOuG3HPpmmvlMgS+AQuAli56utB3z7V88POg/1b/Sl2bwrqCff61bX4GRjcUUPbD4SCbzUZ+/vwpT09P3s/b29u76QSsLAYMQsMui9+FVsPVzWbzrl3+/PPPP27u/BlApINpRqJ1KAstpPv29uaKE/8bgIL+jcp6Tf8Dn80D5Fbp7sPz8/M7nWPdK3S35G/HhxkKTBeQdMSfwmwzAZhPC01DKsqJgBHpQ0sFeEtNKrI0gI7PNBJito9ZRpDJUdcMxqAJfYHPUAyJam714LcCzsLqANOAQYoP+LjE+9j0o90hunfs2Lq8BZf6agwMG3lXgJUs8iwSoWN9EcJUMwGjKHIetixLtzg0dN4OQ9HozoFVLrmgeB8NLF7GcSzb7dZt8R0pu8+3QHgrIAufIvlkwIreal6ApYW/8z33IwBnYRcsmX4YCKClRCgfHyznsfiwuufryy79/5sx6ihBxxS6P287FoNksVjIer2WPM9dBIEV6pQSWPb7vRRFIbHuTU9MuXsYI/5e1Fhh4KW6zw2DFekiIhJq1uu1TDU19zMQqaFMTHYk+JjP5zKfzwcbxT6cTic3D55Q9igWnJfLpSyXSycf7kOhrFOAIyLpWTcYC+izub4tjMEXUy5Cq+E+aMHfRVFIpOtCn8EHdO94PDrZWd2bz+eyWq1ktVrJ3YAqXUMB+lmvxsKohkIo2+50OslE5+Oz2cwNgLm+CostQHgEGIJIt/Eg7Eq30dDZ3LGw2vP5/GzOz52V6Ao0aEBGJWhIP/lNTKy7NE3jlQ0iJzZ8twKDBdMr7CRxP2SaZgwZ4J6DJjKluvDKMoacEV6PMcD6AOMGHvCB4QAtmGZYPrBlDz7Af6wJf2OtCUF34eCszLmf4cDG0D9E8pEmrSG1gI3jn+DPtdGgNgk5s9nM5S8sl0unZJXus8PTZVkmsb54hWiA1xnY8ESaqltpos1qtXr3YgxWmoXOccBedp7nkmrWZkEvRLU0t73kYXAdPl3g3/FvrQuXlWYpItcE+SVxHDtjYp8/tF0GR3jT6dRtwy4WC5nSy1pMJ2iEzPM8P8tByTT9vND5N9/bmvd4GPyb/d3ea3+HcU01pR+03N3duX7EC1xC26no3y4+RMStG3Cbl/gAQCdf01A6f6sGarFYuHYhd1x3ojwdy7+vbVxjaUPkKCLv5DMGRjcUjUkWSTVvfqkHrkwmE2n0DbeDvkGKaQc6nBW31rcwy7J04XlEeftN08iMkpUmk4m0tDWL5890OxK57S1l+3Fn+TrQojFJU77rWg3hK5OMBS93OBycx4GXudNsvoIWNqH4YpLAhgIe7qTp8dhxgcEty1L2+/0ZjXyP0OlJi8XC9eHpdJL9fi97fVNRiGfI3cqF6be/tWqgKs9CLvoT0Qt44IjAN9hrclqiDgN8IBKpNEuU+WjUyAztX+4PfA/nBme50NOnMHBL3SLF4BbTrq9NMe2ynNBmXddn42E6oFzgEHzYa+Yxve3G4U+t3pIZRVgJZbGdE9Nbi616QHyHeSCezQoOw8JTHKEw7aQptgzMXWEwrNLimlTfRDxoGrIFeOLoiX/DM0CTkBKIrg2IyFnEM9GXkBo1xtcAcmA5sgx8agD5JrqeIuTRcC8bGPA81Re77HMnmk7uk61PpkmSyHK5lO/fv7t3aU5q8BCuMx2+fhDiA3ogA/lI09Tx4UOq6x7QOwvwA5kLGUSf3CGDSBfzfX0Sd7wwaMcDT+FZ9/g517xm/mGGQszWVURZfq0nrOI5sg88j8M1eD7fa59taei6joGB1PW70HO7lFPoGt+zmC4G8yZq1ACfDIaCZQCapKMvGFZ+ffdd4ll6ZGtlyobi9+/f8uvXLxdZMrqex7iVj1v7F7/zdUL9dumeoe3aa3w8drVzraEYferBaGk+BYvfXAjlfN8DPqbx/JoWCO0zLA1d1zH6fhd67iXgGt+zmC7+gEf8be+xMhgKfm5fXzCs/Pruu8Sz9MgW93bByqaPFsatfFxCH69ML+te3z1D27Xw8djVzrX4UEMREBDw/4Gbpx5PT0/2p4CAUYGpx+Pjo+x2O3l+fr56bSbAD0w9Hh8fB009rjYUxwvn8AUEjImIzszkHaqAP0ek+RZIKejD1Yai0S2c0GEBH42IXhXneXfAnyPS7GDeCbqEqw1FQEDAfw/9piQgIOA/j2AoAgICehEMRUBAQC+CoQgICOhFMBQBAQG9CIYiICCgF8FQBAQE9CIYioCAgF4EQxEQENCLYCgCAgJ6EQxFQEBAL4KhCAgI6EUwFAEBAb34H8iWyqMRbchBAAAAAElFTkSuQmCC;" vertex="1" parent="1">
          <mxGeometry x="1247.002777217742" y="876.9976789314514" width="266" height="328" as="geometry" />
        </mxCell>
        <mxCell id="fsBK9SrnEqgFPzSVqPCH-2" value="" style="edgeStyle=orthogonalEdgeStyle;rounded=0;orthogonalLoop=1;jettySize=auto;html=1;exitX=0.5;exitY=1;exitDx=0;exitDy=0;exitPerimeter=0;" edge="1" parent="1" source="hd3ZJvUOIexpWE_1iHzg-3">
          <mxGeometry relative="1" as="geometry">
            <mxPoint x="299.7" y="120" as="sourcePoint" />
            <mxPoint x="299.7" y="200" as="targetPoint" />
          </mxGeometry>
        </mxCell>
        <object placeholders="1" c4Name="My Metting API" c4Type="SystemScopeBoundary" c4Application="" label="&lt;font&gt;&lt;b&gt;&lt;div style=&quot;&quot;&gt;%c4Name%&lt;/div&gt;&lt;/b&gt;&lt;/font&gt;&lt;div style=&quot;&quot;&gt;[%c4Application%]&lt;/div&gt;" id="fsBK9SrnEqgFPzSVqPCH-3">
          <mxCell style="rounded=1;fontSize=20;whiteSpace=wrap;html=1;dashed=1;arcSize=20;fillColor=none;strokeColor=#666666;fontColor=light-dark(#FFFFFF,#FFFFFF);labelBackgroundColor=none;align=center;verticalAlign=top;labelBorderColor=none;spacingTop=0;spacing=10;dashPattern=8 4;metaEdit=1;rotatable=0;perimeter=rectanglePerimeter;labelPadding=0;allowArrows=0;connectable=0;expand=0;recursiveResize=0;editable=1;pointerEvents=0;absoluteArcSize=1;points=[[0.25,0,0],[0.5,0,0],[0.75,0,0],[1,0.25,0],[1,0.5,0],[1,0.75,0],[0.75,1,0],[0.5,1,0],[0.25,1,0],[0,0.75,0],[0,0.5,0],[0,0.25,0]];" vertex="1" parent="1">
            <mxGeometry x="-967" y="807" width="1777" height="328" as="geometry" />
          </mxCell>
        </object>
        <mxCell id="fsBK9SrnEqgFPzSVqPCH-4" value="&lt;b&gt;&lt;font style=&quot;font-size: 29px;&quot;&gt;Database&lt;/font&gt;&lt;/b&gt;" style="text;html=1;align=center;verticalAlign=middle;resizable=0;points=[];autosize=1;strokeColor=none;fillColor=none;" vertex="1" parent="1">
          <mxGeometry x="-152" y="841" width="147" height="47" as="geometry" />
        </mxCell>
        <mxCell id="fsBK9SrnEqgFPzSVqPCH-5" value="&lt;b&gt;&lt;font style=&quot;font-size: 29px;&quot;&gt;My Meetings API&lt;/font&gt;&lt;/b&gt;" style="text;html=1;align=center;verticalAlign=middle;resizable=0;points=[];autosize=1;strokeColor=none;fillColor=none;" vertex="1" parent="1">
          <mxGeometry x="-242" y="189" width="247" height="47" as="geometry" />
        </mxCell>
        <mxCell id="fsBK9SrnEqgFPzSVqPCH-6" value="&lt;b&gt;&lt;font style=&quot;font-size: 29px;&quot;&gt;My Meetings System&lt;/font&gt;&lt;/b&gt;&lt;div&gt;&lt;b&gt;&lt;font style=&quot;font-size: 29px;&quot;&gt;[System]&lt;/font&gt;&lt;/b&gt;&lt;/div&gt;" style="text;html=1;align=center;verticalAlign=middle;resizable=0;points=[];autosize=1;strokeColor=none;fillColor=none;" vertex="1" parent="1">
          <mxGeometry x="-288" y="-56" width="303" height="82" as="geometry" />
        </mxCell>
        <mxCell id="fsBK9SrnEqgFPzSVqPCH-7" value="&lt;font style=&quot;font-size: 21px;&quot;&gt;Use&lt;/font&gt;&lt;div&gt;&lt;font style=&quot;font-size: 21px;&quot;&gt;[HTTP]&lt;/font&gt;&lt;/div&gt;" style="text;html=1;align=center;verticalAlign=middle;resizable=0;points=[];autosize=1;strokeColor=none;fillColor=none;" vertex="1" parent="1">
          <mxGeometry x="310" y="93" width="85" height="62" as="geometry" />
        </mxCell>
      </root>
    </mxGraphModel>
  </diagram>
</mxfile>
